<svg xmlns="http://www.w3.org/2000/svg" xmlns:xlink="http://www.w3.org/1999/xlink" width="37.838" height="37.838" viewBox="0 0 37.838 37.838"><defs><style>.a{fill:none;}.b,.g{fill:#fff;}.c{fill:#231f20;}.d{clip-path:url(#a);}.e{fill:#00b48d;}.f{fill:#164d92;}.g{fill-rule:evenodd;}</style><clipPath id="a"><path class="a" d="M172.779,12.69A13.166,13.166,0,1,1,159.61-.473h0A13.165,13.165,0,0,1,172.779,12.69Z" transform="translate(-146.447 0.473)"/></clipPath></defs><path class="b" d="M176.663,11.44A18.789,18.789,0,1,1,157.877-7.354,18.788,18.788,0,0,1,176.663,11.44Z" transform="translate(-138.957 7.486)"/><path class="c" d="M157.835,30.312a18.919,18.919,0,1,1,18.92-18.918v0A18.937,18.937,0,0,1,157.835,30.312Zm0-37.578A18.657,18.657,0,1,0,176.493,11.4,18.658,18.658,0,0,0,157.835-7.266Z" transform="translate(-138.917 7.526)"/><g transform="translate(2.003 21.867)"><path class="c" d="M142.751,23.669l-.343-1.147-.741-.1-.131-.436,3.245.476-2.468,2.13-.134-.443Zm.331-.276.794-.67-1.036-.145Z" transform="translate(-141.536 -21.286)"/><path class="c" d="M145.791,26.2l-.331-.222a.587.587,0,0,0,.117-.26.4.4,0,0,0-.05-.236.431.431,0,0,0-.217-.219.318.318,0,0,0-.274,0c-.124.06-.179.2-.164.417l.017.3a1.145,1.145,0,0,1-.088.6.757.757,0,0,1-.372.353.857.857,0,0,1-.688.045.877.877,0,0,1-.508-.469.859.859,0,0,1-.064-.636.982.982,0,0,1,.421-.527l.269.346a.727.727,0,0,0-.262.239.439.439,0,0,0,0,.421.449.449,0,0,0,.26.239.459.459,0,0,0,.359-.028.466.466,0,0,0,.124-.086.374.374,0,0,0,.081-.117.492.492,0,0,0,.043-.158,1.313,1.313,0,0,0,.007-.2l-.017-.293a.776.776,0,0,1,.391-.824.673.673,0,0,1,.579-.012.881.881,0,0,1,.453.448A.824.824,0,0,1,145.791,26.2Z" transform="translate(-141.912 -21.95)"/><path class="c" d="M146.859,27.722l-2.011,1.313-.229-.353,2.011-1.313-.35-.535.331-.217.934,1.43-.331.217Z" transform="translate(-142.262 -22.377)"/><path class="c" d="M148.665,30.149l-.724-.856-.512.434.7.831-.306.255-.7-.831-.715.6.724.856-.306.255-.994-1.179,2.137-1.806.994,1.179Z" transform="translate(-142.547 -22.87)"/><path class="c" d="M149.358,32.457l-.153,1.467-.382-.346.169-1.386-.057-.05-.765.853-.314-.281,1.868-2.082.369.331a1.234,1.234,0,0,1,.459.688.81.81,0,0,1-1.191.8Zm-.177-.591.1.09c.3.267.548.286.753.06s.141-.451-.148-.71l-.112-.1Z" transform="translate(-143.023 -23.322)"/><path class="c" d="M151.693,35.644l1.343-2.454.515.281a2.135,2.135,0,0,1,.546.393,1.2,1.2,0,0,1,.284.472,1.446,1.446,0,0,1-.965,1.8l-.052.015a1.31,1.31,0,0,1-.551.017,2.193,2.193,0,0,1-.612-.248Zm.562-.145.167.093a1.58,1.58,0,0,0,.443.174,1.026,1.026,0,0,0,1.148-.885,1.009,1.009,0,0,0-.036-.43,1.175,1.175,0,0,0-.593-.617l-.167-.09Z" transform="translate(-143.926 -23.924)"/><path class="c" d="M155.077,37.366l1.453-2.7.276,2.361,1.591-1.785-.382,3.03-.414-.128.241-1.694-1.327,1.492-.229-1.975L155.5,37.5Z" transform="translate(-144.723 -24.272)"/><path class="c" d="M162.224,37.2l1.208.031.026-1.093.422.012-.071,2.8-.421-.012.034-1.306-1.206-.031-.034,1.305-.422-.012.071-2.8.422.012Z" transform="translate(-146.296 -24.608)"/><path class="c" d="M166.764,36.243l-1.113.141.086.667,1.079-.138.05.393-1.082.138.119.927,1.113-.143.05.393-1.529.2-.353-2.773,1.529-.2Z" transform="translate(-147.101 -24.549)"/><path class="c" d="M169.982,37.2l-1.151.333-.109.739-.436.126.5-3.243L170.9,37.64l-.446.128Zm-.276-.331-.662-.8-.153,1.034Z" transform="translate(-147.832 -24.386)"/><path class="c" d="M171.269,34.505l.989,2.19.751-.338.164.362-1.134.512-1.151-2.552Z" transform="translate(-148.444 -24.233)"/><path class="c" d="M173.269,33.732l1.2,2.082-.365.21-1.2-2.08-.557.322-.2-.346,1.48-.853.2.343Z" transform="translate(-148.74 -23.895)"/><path class="c" d="M175.329,33.136l.95-.746-.677-.86.331-.26,1.73,2.2-.331.262-.807-1.027-.948.746.807,1.027-.331.26-1.73-2.2.331-.262Z" transform="translate(-149.252 -23.472)"/><path class="c" d="M178.517,28.965l.372.336a1.176,1.176,0,0,0-.736.357.964.964,0,0,0-.257.746,1.048,1.048,0,0,0,.359.726,1.027,1.027,0,0,0,.751.279.976.976,0,0,0,.713-.338.889.889,0,0,0,.2-.329,1.06,1.06,0,0,0,.047-.2,1.762,1.762,0,0,0,.021-.245l.376.343a1.5,1.5,0,0,1-.357.7,1.437,1.437,0,0,1-2.029.116l-.008-.007a1.439,1.439,0,0,1-.469-.9,1.415,1.415,0,0,1,.374-1.179A1.458,1.458,0,0,1,178.517,28.965Z" transform="translate(-149.997 -22.93)"/><path class="c" d="M181.8,27.836l-.638,1.015.41.626-.241.382-1.782-2.753,3.228.45-.245.391Zm-.427-.064-1.027-.153.574.875Z" transform="translate(-150.482 -22.492)"/><path class="c" d="M182.563,24.923,184,24.592l-.2.474-1.367.288-.031.071,1.055.448-.164.388-2.575-1.091.193-.459a1.244,1.244,0,0,1,.505-.658.774.774,0,0,1,.67-.012.8.8,0,0,1,.405.355A.767.767,0,0,1,182.563,24.923Zm-.5.359.052-.124c.158-.369.093-.612-.188-.732-.262-.112-.472.012-.622.369l-.06.138Z" transform="translate(-150.756 -21.755)"/><path class="c" d="M182.5,21.177l-.288,1.084.648.174.281-1.053.382.1-.281,1.053.9.241.291-1.084.382.1-.4,1.492-2.7-.724.4-1.492Z" transform="translate(-150.993 -21.072)"/></g><g transform="translate(5.758 5.393)"><g transform="translate(0 0)"><g class="d"><g transform="translate(-0.735 -0.833)"><path class="e" d="M145.661,12.465a13.766,13.766,0,1,1,0,.01Z" transform="translate(-145.527 1.502)"/><path class="f" d="M145.486,12.2A13.764,13.764,0,0,1,159.25-1.563c6.288,0,11.841,3.855,13.49,9.6a2.125,2.125,0,0,1-.96.459,5.3,5.3,0,0,0-2.523,1.337l-2.747,3.111-4.953,5s-.459.1-.508-.748-.7-3.812-.7-3.812a6.085,6.085,0,0,1-1.2,1.9,16.376,16.376,0,0,1-7.515,3.5,5.688,5.688,0,0,1-3.984-1.091,6.115,6.115,0,0,0-1.7-1.923A13.664,13.664,0,0,1,145.486,12.2Z" transform="translate(-145.486 1.563)"/></g></g></g><g transform="translate(0.011 8.283)"><path class="g" d="M161.6,11.378s-.136-.134-.353.6a17.523,17.523,0,0,0-.239,2.814,8.1,8.1,0,0,0,1.191-3.059C162.2,11.139,161.6,11.378,161.6,11.378Zm-3.3,4a.376.376,0,0,1-.017.036.711.711,0,0,1,.393.043c.212.138.293.521.212.589-.174.124-1.928,1.21-2.342,1.046s-2.049-1.8-3.059-2.464-5.925-2.259-6.135,1.877,4.053,5.353,6.76,4.429c2.728-.918,5.728-4.511,5.728-4.511-.036-3.135.255-3.969.841-5.161.622-1.265,2.637-1.353,2.3.772a10.117,10.117,0,0,1-2.009,4.146,23.764,23.764,0,0,1,.837,4.091s4.708-5.505,6.766-7.6c2.009-2.047,3.643-1.339,3.643-1.339-.464.21-.589,1.763-.669,2.009s-.626,0-.626,0L171,12.8c-.879-1.3-2.63.994-3.55,2.919a23.893,23.893,0,0,0-1.341,5.8l1.26.088v.672a8.5,8.5,0,0,0-2.555.787,8.867,8.867,0,0,1,.041-1.425c.086-1.172,1-4.851,1-4.851s-1.506,1.6-2.042,2.308-3.135,3.67-3.135,3.67l-.414-.414a12.607,12.607,0,0,0,.291-2.471c-.083-.662-.414-2.249-.414-2.249l-1.046,1.041a16.7,16.7,0,0,1-4.138,2.966c-8.058,2.507-9.793-4.708-7.647-7.357a4.98,4.98,0,0,1,5.925-1.251c.924.4,4.01,2.88,4.4,2.926.314.031.574-.419.651-.548C158.263,15.407,158.263,15.395,158.3,15.374Z" transform="translate(-146.461 -10.359)"/></g></g></svg>