<svg xmlns="http://www.w3.org/2000/svg" xmlns:xlink="http://www.w3.org/1999/xlink" width="25" height="25" viewBox="0 0 25 25">
  <defs>
    <clipPath id="clip-arabic">
      <rect width="25" height="25"/>
    </clipPath>
  </defs>
  <g id="arabic" clip-path="url(#clip-arabic)">
    <g id="Group_1039" data-name="Group 1039" transform="translate(-25 3)">
      <g id="Group_995" data-name="Group 995" transform="translate(-502.667 -333.429)">
        <path id="Ellipse_1" data-name="Ellipse 1" d="M12.5,0A12.5,12.5,0,1,1,0,12.5,12.5,12.5,0,0,1,12.5,0Z" transform="translate(527.667 330.429)" fill="#97005e"/>
        <g id="Ar" style="isolation: isolate">
          <g id="Group_1038" data-name="Group 1038" style="isolation: isolate">
            <path id="Path_3039" data-name="Path 3039" d="M539.595,344.994h-3.4l-.6,1.7h-1.788l3.12-8.376h1.931l3.109,8.376h-1.788Zm-.456-1.284-1.248-3.576-1.248,3.576Z" fill="#fff"/>
            <path id="Path_3040" data-name="Path 3040" d="M545.559,340.32a2.614,2.614,0,0,1,1.368-.366v1.813h-.492q-1.862,0-1.861,1.727v3.2h-1.691V340.05h1.691v1.272A2.776,2.776,0,0,1,545.559,340.32Z" fill="#fff"/>
          </g>
        </g>
      </g>
    </g>
  </g>
</svg>
