<svg xmlns="http://www.w3.org/2000/svg" xmlns:xlink="http://www.w3.org/1999/xlink" width="30" height="30" viewBox="0 0 30 30">
  <defs>
    <clipPath id="clip-Calendar">
      <rect width="30" height="30"/>
    </clipPath>
  </defs>
  <g id="Calendar" clip-path="url(#clip-Calendar)">
    <g id="Group_1165" data-name="Group 1165" transform="translate(1 2)">
      <path id="Path_2884" data-name="Path 2884" d="M150.209,52.2h-7.635a.472.472,0,0,0,0,.943h7.635a.472.472,0,1,0,0-.943Z" transform="translate(-133.724 -50.344)" fill="#fff"/>
      <path id="Path_2885" data-name="Path 2885" d="M28.081,67.51a6.31,6.31,0,0,0-2.671-2.671V52.647a.442.442,0,0,0-.436-.448h-4.31a.472.472,0,1,0,0,.943h3.8v11.3a6.078,6.078,0,0,0-1.975-.318A6.282,6.282,0,0,0,16.207,70.4a6.014,6.014,0,0,0,.324,1.963H.943V53.142H4.127a.472.472,0,1,0,0-.943H.454A.439.439,0,0,0,0,52.617v20.24a.435.435,0,0,0,.424.448H16.932a6.283,6.283,0,0,0,11.149-5.8ZM22.5,75.758a5.347,5.347,0,1,1,5.347-5.347A5.347,5.347,0,0,1,22.5,75.758Z" transform="translate(0 -50.342)" fill="#fff"/>
      <path id="Path_2886" data-name="Path 2886" d="M311.474,20.7a.473.473,0,0,0-.472.472v3.673a.472.472,0,1,0,.943,0V21.173A.473.473,0,0,0,311.474,20.7Z" transform="translate(-292.666 -20.701)" fill="#fff"/>
      <path id="Path_2887" data-name="Path 2887" d="M104.474,20.7a.473.473,0,0,0-.472.472v3.673a.472.472,0,0,0,.943,0V21.173A.473.473,0,0,0,104.474,20.7Z" transform="translate(-97.87 -20.701)" fill="#fff"/>
      <path id="Path_2888" data-name="Path 2888" d="M70.451,150.2H52.074a.472.472,0,1,0,0,.943H70.445a.472.472,0,1,0,.006-.943Z" transform="translate(-48.56 -142.566)" fill="#fff"/>
      <path id="Path_2889" data-name="Path 2889" d="M66.158,213.2H52.074a.472.472,0,0,0,0,.943H66.158a.472.472,0,1,0,0-.943Z" transform="translate(-48.56 -201.852)" fill="#fff"/>
      <path id="Path_2890" data-name="Path 2890" d="M60.033,275.2H52.074a.472.472,0,1,0,0,.943h7.959a.472.472,0,1,0,0-.943Z" transform="translate(-48.56 -260.196)" fill="#fff"/>
      <path id="Path_2891" data-name="Path 2891" d="M332.886,309.066h-2.264v-2.293a.472.472,0,1,0-.943,0v2.293h-2.305a.472.472,0,0,0,0,.943h2.305v2.276a.472.472,0,0,0,.943,0v-2.276h2.264a.472.472,0,1,0,0-.943Z" transform="translate(-307.629 -289.463)" fill="#fff"/>
    </g>
  </g>
</svg>
