<svg xmlns="http://www.w3.org/2000/svg" width="19.459" height="19.5" viewBox="0 0 19.459 19.5"><defs><style>.a{fill:#97005e;}</style></defs><path class="a" d="M19.488,14.311,16.767,11.59a1.81,1.81,0,0,0-3.013.68,1.852,1.852,0,0,1-2.138,1.166A8.392,8.392,0,0,1,6.562,8.383,1.761,1.761,0,0,1,7.728,6.244a1.81,1.81,0,0,0,.68-3.013L5.687.51a1.941,1.941,0,0,0-2.624,0L1.216,2.357C-.63,4.3,1.411,9.452,5.979,14.019s9.719,6.706,11.663,4.762l1.847-1.847A1.941,1.941,0,0,0,19.488,14.311Z" transform="translate(-0.539 0)"/></svg>