<svg xmlns="http://www.w3.org/2000/svg" xmlns:xlink="http://www.w3.org/1999/xlink" width="25" height="25" viewBox="0 0 25 25">
  <defs>
    <clipPath id="clip-English">
      <rect width="25" height="25"/>
    </clipPath>
  </defs>
  <g id="English" clip-path="url(#clip-English)">
    <g id="Group_1041" data-name="Group 1041">
      <g id="Group_1039" data-name="Group 1039" transform="translate(-25 3)">
        <g id="Group_995" data-name="Group 995" transform="translate(-502.667 -333.429)">
          <path id="Ellipse_1" data-name="Ellipse 1" d="M12.5,0A12.5,12.5,0,1,1,0,12.5,12.5,12.5,0,0,1,12.5,0Z" transform="translate(527.667 330.429)" fill="#97005e"/>
        </g>
      </g>
      <g id="En" transform="translate(-281.346 -404.417)" style="isolation: isolate">
        <g id="Group_1040" data-name="Group 1040" transform="translate(287.346 412.417)" style="isolation: isolate">
          <path id="Path_3041" data-name="Path 3041" d="M289.031,413.754v2.187h2.987v1.29h-2.987v2.27h3.345v1.35h-5.03v-8.435h5.03v1.337Z" transform="translate(-287.346 -412.417)" fill="#fff"/>
          <path id="Path_3042" data-name="Path 3042" d="M300.467,415.185a3.043,3.043,0,0,1,.681,2.116v3.847h-1.673v-3.656a1.725,1.725,0,0,0-.406-1.225,1.444,1.444,0,0,0-1.111-.437,1.486,1.486,0,0,0-1.147.467,1.9,1.9,0,0,0-.43,1.338v3.513H294.7v-6.619h1.685v1.326a2.108,2.108,0,0,1,.866-1.045,2.574,2.574,0,0,1,1.392-.376A2.346,2.346,0,0,1,300.467,415.185Z" transform="translate(-288.424 -412.713)" fill="#fff"/>
        </g>
      </g>
    </g>
  </g>
</svg>
