<svg xmlns="http://www.w3.org/2000/svg" width="22" height="15.652" viewBox="0 0 22 15.652">
  <g id="Group_96" data-name="Group 96" transform="translate(-491.215 -835)">
    <path id="Path_69" data-name="Path 69" d="M319.522,324.34H305.309c-.532,0-.963.589-.963,1.313s.432,1.313.963,1.313h14.215c.532,0,.964-.589.964-1.313s-.432-1.313-.965-1.313Z" transform="translate(192.728 523.685)" fill="#8a1c5c"/>
    <path id="Path_67" data-name="Path 67" d="M305.309,215.888h14.215c.532,0,.964-.589.964-1.313s-.432-1.313-.964-1.313H305.309c-.532,0-.963.589-.963,1.313S304.776,215.888,305.309,215.888Z" transform="translate(192.728 621.738)" fill="#8a1c5c"/>
    <path id="Path_68" data-name="Path 68" d="M275.076,269.27H255.7a1.313,1.313,0,0,0,0,2.626h19.372a1.313,1.313,0,1,0,0-2.626Z" transform="translate(236.824 572.298)" fill="#8a1c5c"/>
  </g>
</svg>
