<svg xmlns="http://www.w3.org/2000/svg" width="26.875" height="24.815" viewBox="0 0 26.875 24.815">
  <g id="Group_7" data-name="Group 7" transform="translate(-573.328 -604.673)">
    <g id="Group_6" data-name="Group 6">
      <path id="Path_24" data-name="Path 24" d="M596.7,607.763h-.683v-2.138a.922.922,0,1,0-1.843-.06c0,.02,0,.04,0,.06v2.138h-1.808v-2.138a.922.922,0,1,0-1.843-.06c0,.02,0,.04,0,.06v2.138H583v-2.138a.922.922,0,1,0-1.843-.06.579.579,0,0,0,0,.06v2.138h-1.808v-2.138a.922.922,0,0,0-1.843,0v2.138h-.682a3.5,3.5,0,0,0-3.5,3.5v14.725a3.5,3.5,0,0,0,3.5,3.5H596.7a3.5,3.5,0,0,0,3.5-3.5V611.262A3.5,3.5,0,0,0,596.7,607.763Zm-19.875,1.843H596.7a1.658,1.658,0,0,1,1.656,1.656v.229H575.171v-.229A1.658,1.658,0,0,1,576.828,609.606Z" fill="#8a1c5c"/>
    </g>
    <g id="Group_3" data-name="Group 3">
      <g id="Ellipse_2" data-name="Ellipse 2">
        <circle id="Ellipse_3" data-name="Ellipse 3" cx="6.1" cy="6.1" r="6.1" transform="translate(580.921 613.882)" fill="#fff"/>
      </g>
      <path id="Path_18" data-name="Path 18" d="M589.146,619.82H587.44v-2.809a.858.858,0,0,0-1.715,0v3.667a.857.857,0,0,0,.857.856h2.569a.858.858,0,0,0,0-1.714Z" fill="#8a1c5c"/>
    </g>
  </g>
</svg>
