<svg xmlns="http://www.w3.org/2000/svg" width="17.74" height="16.679" viewBox="0 0 17.74 16.679"><g transform="translate(-383.999 -264.276)"><g transform="translate(383.999 264.276)"><path d="M406.168,297.245a.5.5,0,0,0-.51.511v6.989h-3.625v-2.854a.506.506,0,0,0-.493-.5h-2.621a.517.517,0,0,0-.521.5v2.854H394.78v-6.756a.5.5,0,0,0-1,0v7.268a.5.5,0,0,0,.492.494h4.649a.5.5,0,0,0,.492-.494V302.4h1.618v2.854a.5.5,0,0,0,.511.494h4.629a.5.5,0,0,0,.493-.494v-7.5a.5.5,0,0,0-.493-.511Zm0,0" transform="translate(-391.353 -289.072)" fill="#97005e"/><path d="M401.595,272.847,397.56,268.8v-2.762a.512.512,0,0,0-.521-.51.5.5,0,0,0-.493.51v1.749l-3.328-3.348a.486.486,0,0,0-.344-.159.5.5,0,0,0-.362.159l-8.358,8.357a.5.5,0,0,0,.707.706l8.013-7.994,7.995,8.069a.493.493,0,0,0,.362.131.564.564,0,0,0,.363-.131.529.529,0,0,0,0-.726Zm0,0" transform="translate(-383.999 -264.276)" fill="#97005e"/></g></g></svg>