<svg xmlns="http://www.w3.org/2000/svg" width="39.041" height="39.041" viewBox="0 0 39.041 39.041"><defs><style>.a{stroke:#fff;}.b{fill:#efefef;}</style></defs><g transform="translate(0.5 0.5)"><path class="a" d="M19.02,0A19.02,19.02,0,1,1,0,19.02,19.02,19.02,0,0,1,19.02,0Z"/><path class="b" d="M12.72,16.04V10.832c0-1.245-.019-2.843-1.726-2.843C9.263,7.989,9,9.345,9,10.739v5.3H5.683V5.326H8.861V6.794H8.9a3.492,3.492,0,0,1,3.147-1.728c3.364,0,3.988,2.217,3.988,5.1V16.04Zm-9.134,0H.26V5.326H3.586V16.039h0ZM5.676,5.326h.006ZM0,1.932A1.929,1.929,0,1,1,1.929,3.864,1.933,1.933,0,0,1,0,1.932Z" transform="translate(11 10.513)"/></g></svg>