<svg xmlns="http://www.w3.org/2000/svg" xmlns:xlink="http://www.w3.org/1999/xlink" width="223" height="70" viewBox="0 0 223 70">
  <defs>
    <clipPath id="clip-Artboard_1">
      <rect width="223" height="70"/>
    </clipPath>
  </defs>
  <g id="Artboard_1" data-name="Artboard – 1" clip-path="url(#clip-Artboard_1)">
    <g id="Group_7" data-name="Group 7" transform="translate(3.413 9.511)">
      <g id="Group_2" data-name="Group 2">
        <rect id="Rectangle_1" data-name="Rectangle 1" width="52.967" height="52.967" fill="#951e60"/>
        <g id="Group_1" data-name="Group 1" transform="translate(6.441 17.72)">
          <path id="Path_1" data-name="Path 1" d="M72,172.252H68.443v-6.838l-3.2,3.954h-.284l-3.218-3.954v6.838H58.29V160.47h3.216l3.631,4.408,3.64-4.408H72Z" transform="translate(-58.29 -160.458)" fill="#fff"/>
          <path id="Path_2" data-name="Path 2" d="M319.679,166.419a3.887,3.887,0,0,0-.548-2.231,2.683,2.683,0,0,0-1.316-1.075,4.713,4.713,0,0,0-1.565-.27h-1.515v6.949h1.515a4.331,4.331,0,0,0,2.411-.66c.678-.435,1.018-1.345,1.018-2.714m3.637.147a5.587,5.587,0,0,1-.661,2.908,6.274,6.274,0,0,1-1.56,1.775,5.609,5.609,0,0,1-3.553,1H311.18V160.47h4.9a13.244,13.244,0,0,1,1.892.113,8.029,8.029,0,0,1,1.421.33,5.41,5.41,0,0,1,1.07.462,6.632,6.632,0,0,1,.793.561,5.264,5.264,0,0,1,1.062,1.167,5.556,5.556,0,0,1,.727,1.547,6.415,6.415,0,0,1,.271,1.916" transform="translate(-283.236 -160.458)" fill="#fff"/>
          <rect id="Rectangle_2" data-name="Rectangle 2" width="8.744" height="2.376" transform="translate(16.486)" fill="#fff"/>
          <rect id="Rectangle_3" data-name="Rectangle 3" width="8.744" height="2.38" transform="translate(16.486 4.51)" fill="#fff"/>
          <rect id="Rectangle_4" data-name="Rectangle 4" width="8.744" height="2.38" transform="translate(16.486 9.426)" fill="#fff"/>
          <path id="Path_3" data-name="Path 3" d="M68.191,292.435v.933a8.435,8.435,0,0,0-3.933-1.054,4.616,4.616,0,0,0-3.429,1.408,4.8,4.8,0,0,0-1.38,3.507,4.726,4.726,0,0,0,1.387,3.506,4.853,4.853,0,0,0,3.553,1.374,8.337,8.337,0,0,0,3.926-1.14v.894a8.267,8.267,0,0,1-3.914,1.051,5.786,5.786,0,0,1-4.2-1.629,5.711,5.711,0,0,1,.033-8.13,5.685,5.685,0,0,1,4.082-1.644,9.275,9.275,0,0,1,3.873.925" transform="translate(-58.495 -277.018)" fill="#fff"/>
          <path id="Path_4" data-name="Path 4" d="M165.483,298.958l-2.388-5.208-2.381,5.208Zm-2.125-6.608,5.1,11.153h-.9l-1.756-3.829h-5.42l-1.751,3.829h-.9l5.131-11.153Z" transform="translate(-146.751 -277.765)" fill="#fff"/>
          <path id="Path_5" data-name="Path 5" d="M273.475,293.648V298h1.842a3.473,3.473,0,0,0,2.145-.567,2.106,2.106,0,0,0-.01-3.213,3.521,3.521,0,0,0-2.165-.572h-1.812Zm-.865-.708h2.848a4.208,4.208,0,0,1,2.727.772,2.569,2.569,0,0,1,.944,2.092,2.771,2.771,0,0,1-2.1,2.705,4.935,4.935,0,0,1,1.481,1.69l2.513,3.829h-.992l-1.964-3.035a7.514,7.514,0,0,0-1.5-1.905,2.81,2.81,0,0,0-1.581-.375h-1.5v5.315h-.865Z" transform="translate(-248.928 -278.29)" fill="#fff"/>
          <path id="Path_6" data-name="Path 6" d="M369.724,292.94v.708h-5.189V298.1h5.034v.708h-5.034v4.512h5.31v.711H363.67V292.94Z" transform="translate(-329.925 -278.29)" fill="#fff"/>
          <path id="Path_7" data-name="Path 7" d="M72,172.252H68.443v-6.838l-3.2,3.954h-.284l-3.218-3.954v6.838H58.29V160.47h3.216l3.631,4.408,3.64-4.408H72Z" transform="translate(-58.29 -160.458)" fill="#fff"/>
          <path id="Path_8" data-name="Path 8" d="M319.679,166.419a3.887,3.887,0,0,0-.548-2.231,2.683,2.683,0,0,0-1.316-1.075,4.713,4.713,0,0,0-1.565-.27h-1.515v6.949h1.515a4.331,4.331,0,0,0,2.411-.66c.678-.435,1.018-1.345,1.018-2.714m3.637.147a5.587,5.587,0,0,1-.661,2.908,6.274,6.274,0,0,1-1.56,1.775,5.609,5.609,0,0,1-3.553,1H311.18V160.47h4.9a13.244,13.244,0,0,1,1.892.113,8.029,8.029,0,0,1,1.421.33,5.41,5.41,0,0,1,1.07.462,6.632,6.632,0,0,1,.793.561,5.264,5.264,0,0,1,1.062,1.167,5.556,5.556,0,0,1,.727,1.547,6.415,6.415,0,0,1,.271,1.916" transform="translate(-283.236 -160.458)" fill="#fff"/>
          <rect id="Rectangle_5" data-name="Rectangle 5" width="8.744" height="2.376" transform="translate(16.486)" fill="#fff"/>
          <rect id="Rectangle_6" data-name="Rectangle 6" width="8.744" height="2.38" transform="translate(16.486 4.51)" fill="#fff"/>
          <rect id="Rectangle_7" data-name="Rectangle 7" width="8.744" height="2.38" transform="translate(16.486 9.426)" fill="#fff"/>
          <path id="Path_9" data-name="Path 9" d="M68.191,292.435v.933a8.435,8.435,0,0,0-3.933-1.054,4.616,4.616,0,0,0-3.429,1.408,4.8,4.8,0,0,0-1.38,3.507,4.726,4.726,0,0,0,1.387,3.506,4.853,4.853,0,0,0,3.553,1.374,8.337,8.337,0,0,0,3.926-1.14v.894a8.267,8.267,0,0,1-3.914,1.051,5.786,5.786,0,0,1-4.2-1.629,5.711,5.711,0,0,1,.033-8.13,5.685,5.685,0,0,1,4.082-1.644,9.275,9.275,0,0,1,3.873.925" transform="translate(-58.495 -277.018)" fill="#fff"/>
          <path id="Path_10" data-name="Path 10" d="M165.483,298.958l-2.388-5.208-2.381,5.208Zm-2.125-6.608,5.1,11.153h-.9l-1.756-3.829h-5.42l-1.751,3.829h-.9l5.131-11.153Z" transform="translate(-146.751 -277.765)" fill="#fff"/>
          <path id="Path_11" data-name="Path 11" d="M273.475,293.648V298h1.842a3.473,3.473,0,0,0,2.145-.567,2.106,2.106,0,0,0-.01-3.213,3.521,3.521,0,0,0-2.165-.572h-1.812Zm-.865-.708h2.848a4.208,4.208,0,0,1,2.727.772,2.569,2.569,0,0,1,.944,2.092,2.771,2.771,0,0,1-2.1,2.705,4.935,4.935,0,0,1,1.481,1.69l2.513,3.829h-.992l-1.964-3.035a7.514,7.514,0,0,0-1.5-1.905,2.81,2.81,0,0,0-1.581-.375h-1.5v5.315h-.865Z" transform="translate(-248.928 -278.29)" fill="#fff"/>
          <path id="Path_12" data-name="Path 12" d="M369.724,292.94v.708h-5.189V298.1h5.034v.708h-5.034v4.512h5.31v.711H363.67V292.94Z" transform="translate(-329.925 -278.29)" fill="#fff"/>
        </g>
      </g>
      <g id="Group_4" data-name="Group 4" transform="translate(63.87 48.501)">
        <g id="Group_3" data-name="Group 3">
          <path id="Path_13" data-name="Path 13" d="M578.88,439.43l1.085,2.686,1.142-2.686h.711l1.147,2.7,1.081-2.7h.861l-1.792,4.41h-.283l-1.371-3.229-1.378,3.229h-.275l-1.8-4.41h.87" transform="translate(-578.01 -439.374)" fill="#fff"/>
          <path id="Path_14" data-name="Path 14" d="M651.842,439.43v.658h-1.971v1.143h1.887v.66h-1.887v1.238h2.016v.658H649.03V439.43h2.812" transform="translate(-641.182 -439.374)" fill="#fff"/>
          <path id="Path_15" data-name="Path 15" d="M684.912,438.92a.493.493,0,0,1,.4.186.753.753,0,0,1,.148.491,1.093,1.093,0,0,1-.274.734,1.079,1.079,0,0,1-.674.376v-.162a.832.832,0,0,0,.3-.659l-.007-.1a.393.393,0,0,1-.353-.428.414.414,0,0,1,.133-.312.45.45,0,0,1,.329-.129" transform="translate(-672.688 -438.92)" fill="#fff"/>
          <path id="Path_16" data-name="Path 16" d="M705.151,439.43v3.7h2.114v.658H704.31V439.43h.841" transform="translate(-690.354 -439.374)" fill="#fff"/>
          <path id="Path_17" data-name="Path 17" d="M741.143,439.43v3.7h2.111v.658H740.3V439.43h.843" transform="translate(-722.367 -439.374)" fill="#fff"/>
          <path id="Path_18" data-name="Path 18" d="M793.393,439.43v.658h-1.546v3.7h-.841v-3.7H789.46v-.658h3.933" transform="translate(-766.095 -439.374)" fill="#fff"/>
          <path id="Path_19" data-name="Path 19" d="M836.458,439.421a1.465,1.465,0,0,1,1,.34,1.119,1.119,0,0,1,.386.884,1.1,1.1,0,0,1-.191.648,1.266,1.266,0,0,1-.569.435,1.218,1.218,0,0,1,.371.3,3.778,3.778,0,0,1,.4.652c.265.527.462.892.591,1.091h-.937a4.58,4.58,0,0,1-.263-.46q-.363-.693-.529-.936a1.328,1.328,0,0,0-.324-.344.657.657,0,0,0-.359-.1h-.3v1.841h-.842V439.42h1.568m-.191,1.859a.763.763,0,0,0,.519-.165.571.571,0,0,0,.187-.452.537.537,0,0,0-.187-.448.842.842,0,0,0-.533-.148h-.522v1.212Z" transform="translate(-806.505 -439.365)" fill="#fff"/>
          <path id="Path_20" data-name="Path 20" d="M878.952,439.43v.658h-1.971v1.143h1.888v.66h-1.888v1.238H879v.658H876.14V439.43h2.812" transform="translate(-843.197 -439.374)" fill="#fff"/>
          <path id="Path_21" data-name="Path 21" d="M911.728,439.43l1.923,4.355h-.888l-.452-1.06h-1.936l-.419,1.06h-.885l1.8-4.355h.861m-1.1,2.655h1.4l-.735-1.725Z" transform="translate(-872.488 -439.374)" fill="#fff"/>
          <path id="Path_22" data-name="Path 22" d="M955.6,439.43v.658h-1.545v3.7h-.843v-3.7H951.67v-.658H955.6" transform="translate(-910.38 -439.374)" fill="#fff"/>
          <path id="Path_23" data-name="Path 23" d="M1011.762,439.43l1.054,1.455,1.065-1.455h1l-1.646,2.2v2.157h-.842v-2.164l-1.654-2.191h1.022" transform="translate(-962.923 -439.374)" fill="#fff"/>
          <path id="Path_24" data-name="Path 24" d="M1054.825,438.92a2.611,2.611,0,0,1,1.217.281,2.155,2.155,0,0,1,.863.8,2.18,2.18,0,0,1,.32,1.152,2.156,2.156,0,0,1-.313,1.132,2.123,2.123,0,0,1-.861.809,2.559,2.559,0,0,1-1.232.292,2.59,2.59,0,0,1-1.229-.293,2.159,2.159,0,0,1-1.171-1.939,2.213,2.213,0,0,1,.308-1.126,2.15,2.15,0,0,1,.852-.818,2.584,2.584,0,0,1,1.245-.292m-1.538,2.234a1.547,1.547,0,0,0,.2.779,1.4,1.4,0,0,0,.546.538,1.657,1.657,0,0,0,.794.188,1.509,1.509,0,0,0,1.1-.42,1.454,1.454,0,0,0,.431-1.085,1.585,1.585,0,0,0-.192-.781,1.357,1.357,0,0,0-.55-.538,1.749,1.749,0,0,0-1.592,0,1.351,1.351,0,0,0-.544.536A1.579,1.579,0,0,0,1053.287,441.154Z" transform="translate(-999.997 -438.92)" fill="#fff"/>
          <path id="Path_25" data-name="Path 25" d="M1107.614,439.43v2.534a1.421,1.421,0,0,0,.117.622.924.924,0,0,0,.381.378,1.246,1.246,0,0,0,.619.15,1.4,1.4,0,0,0,.657-.14.882.882,0,0,0,.392-.388,1.5,1.5,0,0,0,.125-.678V439.43h.841v2.588a1.715,1.715,0,0,1-.527,1.35,2.156,2.156,0,0,1-1.489.472,2.376,2.376,0,0,1-1.048-.215A1.542,1.542,0,0,1,1107,443a1.894,1.894,0,0,1-.234-.955V439.43h.844" transform="translate(-1048.342 -439.374)" fill="#fff"/>
          <path id="Path_26" data-name="Path 26" d="M1165.72,439.43l1.085,2.686,1.142-2.686h.709l1.147,2.7,1.081-2.7h.862l-1.793,4.41h-.283l-1.372-3.229-1.377,3.229h-.274l-1.8-4.41h.87" transform="translate(-1100.004 -439.374)" fill="#fff"/>
          <path id="Path_27" data-name="Path 27" d="M1238.667,439.43v.658h-1.976v1.143h1.89v.66h-1.89v1.238h2.017v.658h-2.858V439.43h2.817" transform="translate(-1163.158 -439.374)" fill="#fff"/>
          <path id="Path_28" data-name="Path 28" d="M1273.712,439.43v3.7h2.112v.658h-2.954V439.43h.842" transform="translate(-1196.088 -439.374)" fill="#fff"/>
          <path id="Path_29" data-name="Path 29" d="M1309.722,439.43v3.7h2.113v.658h-2.955V439.43h.842" transform="translate(-1228.119 -439.374)" fill="#fff"/>
        </g>
      </g>
      <g id="Group_5" data-name="Group 5" transform="translate(64.113 17.599)">
        <path id="Path_30" data-name="Path 30" d="M582.172,160.45v4.273h5.269V160.45H589.4V170.6h-1.963v-4.287h-5.269V170.6H580.21V160.45Z" transform="translate(-580.21 -160.32)" fill="#fff"/>
        <path id="Path_31" data-name="Path 31" d="M701.74,159.27a6.092,6.092,0,0,1,2.838.651,4.993,4.993,0,0,1,2.009,1.875,5.126,5.126,0,0,1-1.988,7.216,6.42,6.42,0,0,1-5.74-.011,5.025,5.025,0,0,1-2.728-4.519,5.1,5.1,0,0,1,.719-2.623,4.991,4.991,0,0,1,1.984-1.907A6.034,6.034,0,0,1,701.74,159.27Zm-3.582,5.21a3.62,3.62,0,0,0,.457,1.817,3.176,3.176,0,0,0,1.275,1.25,3.822,3.822,0,0,0,1.85.443,3.529,3.529,0,0,0,2.569-.981,3.378,3.378,0,0,0,1.007-2.528,3.659,3.659,0,0,0-.454-1.82,3.138,3.138,0,0,0-1.279-1.253,4.1,4.1,0,0,0-3.713,0,3.112,3.112,0,0,0-1.268,1.25A3.693,3.693,0,0,0,698.158,164.48Z" transform="translate(-683.321 -159.27)" fill="#fff"/>
        <path id="Path_32" data-name="Path 32" d="M829.057,159.27a5.935,5.935,0,0,1,2.855.741v1.744a5.586,5.586,0,0,0-2.8-.951,2.027,2.027,0,0,0-1.159.287.887.887,0,0,0-.418.767q0,.574.778,1.061.217.146,1.678.814a4.816,4.816,0,0,1,1.8,1.308,2.758,2.758,0,0,1,.552,1.729,2.638,2.638,0,0,1-.941,2.111,3.627,3.627,0,0,1-2.438.8,5.781,5.781,0,0,1-1.675-.214,7.278,7.278,0,0,1-1.573-.737V166.8a4.933,4.933,0,0,0,3.066,1.351,1.971,1.971,0,0,0,1.162-.313.967.967,0,0,0,.443-.829,1.308,1.308,0,0,0-.77-1.148q-.64-.348-1.65-.835a4.853,4.853,0,0,1-1.791-1.272,2.592,2.592,0,0,1-.592-1.686,2.475,2.475,0,0,1,.951-2.039A3.928,3.928,0,0,1,829.057,159.27Z" transform="translate(-798.475 -159.27)" fill="#fff"/>
        <path id="Path_33" data-name="Path 33" d="M922.373,160.45a3.272,3.272,0,0,1,2.314.824,2.768,2.768,0,0,1,.891,2.125,2.735,2.735,0,0,1-.9,2.129,3.409,3.409,0,0,1-2.376.814h-1.89V170.6H918.45V160.45Zm-.487,4.36a1.874,1.874,0,0,0,1.224-.36,1.3,1.3,0,0,0,.44-1.064q0-1.4-1.8-1.4H920.41v2.827Z" transform="translate(-881.074 -160.32)" fill="#fff"/>
        <path id="Path_34" data-name="Path 34" d="M1015.611,160.45V170.6h-1.961V160.45Z" transform="translate(-965.755 -160.32)" fill="#fff"/>
        <path id="Path_35" data-name="Path 35" d="M1070.6,160.45v1.534H1067V170.6h-1.961v-8.618h-3.6V160.45Z" transform="translate(-1008.255 -160.32)" fill="#fff"/>
        <path id="Path_36" data-name="Path 36" d="M1159.992,160.45l4.483,10.152H1162.4l-1.054-2.471h-4.513l-.981,2.471H1153.8l4.186-10.152Zm-2.558,6.191h3.277L1159,162.622Z" transform="translate(-1090.418 -160.32)" fill="#fff"/>
        <path id="Path_37" data-name="Path 37" d="M1279.323,160.45v8.618h4.926V170.6h-6.889V160.45Z" transform="translate(-1200.325 -160.32)" fill="#fff"/>
        <path id="Path_38" data-name="Path 38" d="M1366.748,159.27a5.936,5.936,0,0,1,2.855.741v1.744a5.587,5.587,0,0,0-2.8-.951,2.027,2.027,0,0,0-1.159.287.887.887,0,0,0-.418.767q0,.574.778,1.061.219.146,1.678.814a4.815,4.815,0,0,1,1.8,1.308,2.759,2.759,0,0,1,.552,1.729,2.638,2.638,0,0,1-.941,2.111,3.628,3.628,0,0,1-2.438.8,5.78,5.78,0,0,1-1.675-.214,7.276,7.276,0,0,1-1.574-.737V166.8a4.933,4.933,0,0,0,3.066,1.351,1.971,1.971,0,0,0,1.162-.313.967.967,0,0,0,.443-.829,1.308,1.308,0,0,0-.77-1.148q-.64-.348-1.65-.835a4.853,4.853,0,0,1-1.791-1.272,2.591,2.591,0,0,1-.592-1.686,2.475,2.475,0,0,1,.951-2.039A3.928,3.928,0,0,1,1366.748,159.27Z" transform="translate(-1276.75 -159.27)" fill="#fff"/>
      </g>
      <g id="Group_6" data-name="Group 6" transform="translate(78.774 33.182)">
        <path id="Path_39" data-name="Path 39" d="M714.374,301.29l2.822,3.388,2.822-3.388H721.5v8.589h-1.66v-6.032h-.05l-2.484,3.026h-.233l-2.484-3.026h-.05v6.032h-1.66V301.29Z" transform="translate(-712.88 -301.18)" fill="#fff"/>
        <path id="Path_40" data-name="Path 40" d="M827.253,301.29v1.3h-3.892v2.256h3.726v1.3h-3.726v2.441h3.978v1.3H821.7V301.29Z" transform="translate(-809.675 -301.179)" fill="#fff"/>
        <path id="Path_41" data-name="Path 41" d="M904.027,301.29a5.069,5.069,0,0,1,2.386.547,3.968,3.968,0,0,1,1.623,1.537,4.329,4.329,0,0,1,.578,2.225,4.278,4.278,0,0,1-.581,2.235,3.912,3.912,0,0,1-1.651,1.509,5.413,5.413,0,0,1-2.453.535h-3.5V301.29Zm-.172,7.292a3,3,0,0,0,2.21-.827,3.261,3.261,0,0,0-.007-4.361,3.126,3.126,0,0,0-2.26-.806h-1.709v5.995h1.766Z" transform="translate(-879.706 -301.18)" fill="#fff"/>
        <path id="Path_42" data-name="Path 42" d="M1004.18,301.29v8.589h-1.66V301.29Z" transform="translate(-970.515 -301.18)" fill="#fff"/>
        <path id="Path_43" data-name="Path 43" d="M1050.413,300.29a6.194,6.194,0,0,1,1.432.166,7.241,7.241,0,0,1,1.513.566v1.561a7.087,7.087,0,0,0-1.466-.657,4.858,4.858,0,0,0-1.4-.2,3.575,3.575,0,0,0-1.654.378,2.777,2.777,0,0,0-1.147,1.066,3.1,3.1,0,0,0,0,3.074,2.723,2.723,0,0,0,1.144,1.054,3.641,3.641,0,0,0,1.66.372,4.429,4.429,0,0,0,1.349-.2,9.753,9.753,0,0,0,1.62-.731v1.561a7.485,7.485,0,0,1-1.537.621,6.478,6.478,0,0,1-1.635.185,5.3,5.3,0,0,1-2.429-.542,4.062,4.062,0,0,1-1.682-1.559,4.248,4.248,0,0,1-.612-2.229,4.386,4.386,0,0,1,.63-2.33,4.22,4.22,0,0,1,1.734-1.592A5.46,5.46,0,0,1,1050.413,300.29Z" transform="translate(-1008.799 -300.29)" fill="#fff"/>
        <path id="Path_44" data-name="Path 44" d="M1142.219,301.29l3.794,8.589h-1.753l-.892-2.091h-3.818l-.83,2.091h-1.74l3.542-8.589Zm-2.165,5.239h2.774l-1.451-3.4Z" transform="translate(-1090.117 -301.18)" fill="#fff"/>
        <path id="Path_45" data-name="Path 45" d="M1243.19,301.29v7.292h4.169v1.3h-5.829V301.29Z" transform="translate(-1183.114 -301.179)" fill="#fff"/>
        <path id="Path_46" data-name="Path 46" d="M1365.293,300.29a6.2,6.2,0,0,1,1.432.166,7.248,7.248,0,0,1,1.513.566v1.561a7.089,7.089,0,0,0-1.467-.657,4.855,4.855,0,0,0-1.4-.2,3.575,3.575,0,0,0-1.654.378,2.776,2.776,0,0,0-1.147,1.066,3.1,3.1,0,0,0,0,3.074,2.722,2.722,0,0,0,1.144,1.054,3.641,3.641,0,0,0,1.66.372,4.428,4.428,0,0,0,1.349-.2,9.749,9.749,0,0,0,1.62-.731v1.561a7.483,7.483,0,0,1-1.537.621,6.478,6.478,0,0,1-1.635.185,5.3,5.3,0,0,1-2.429-.542,4.062,4.062,0,0,1-1.682-1.559,4.246,4.246,0,0,1-.612-2.229,4.386,4.386,0,0,1,.63-2.33,4.22,4.22,0,0,1,1.734-1.592A5.464,5.464,0,0,1,1365.293,300.29Z" transform="translate(-1288.884 -300.29)" fill="#fff"/>
        <path id="Path_47" data-name="Path 47" d="M1465.442,301.29v1.3h-3.892v2.256h3.726v1.3h-3.726v2.441h3.978v1.3h-5.638V301.29Z" transform="translate(-1377.345 -301.179)" fill="#fff"/>
        <path id="Path_48" data-name="Path 48" d="M1540.058,301.29l5.1,5.995V301.29h1.623v8.589h-1.427l-5.134-6.093v6.093H1538.6V301.29Z" transform="translate(-1447.358 -301.18)" fill="#fff"/>
        <path id="Path_49" data-name="Path 49" d="M1645.459,301.29v1.3h-3.05v7.292h-1.66v-7.292h-3.05v-1.3Z" transform="translate(-1535.507 -301.18)" fill="#fff"/>
        <path id="Path_50" data-name="Path 50" d="M1736.093,301.29a2.88,2.88,0,0,1,1.974.67,2.214,2.214,0,0,1,.762,1.746,2.182,2.182,0,0,1-.378,1.276,2.5,2.5,0,0,1-1.123.857,2.507,2.507,0,0,1,.732.6,7.748,7.748,0,0,1,.793,1.285q.787,1.561,1.168,2.153h-1.851a10.3,10.3,0,0,1-.516-.9,19.651,19.651,0,0,0-1.045-1.848,2.488,2.488,0,0,0-.64-.676,1.276,1.276,0,0,0-.707-.2h-.6v3.628H1733V301.29Zm-.376,3.664a1.5,1.5,0,0,0,1.023-.326,1.126,1.126,0,0,0,.372-.892,1.055,1.055,0,0,0-.369-.882,1.662,1.662,0,0,0-1.051-.292h-1.033v2.392h1.057Z" transform="translate(-1620.276 -301.18)" fill="#fff"/>
        <path id="Path_51" data-name="Path 51" d="M1825.622,301.29v1.3h-3.892v2.256h3.726v1.3h-3.726v2.441h3.978v1.3h-5.638V301.29Z" transform="translate(-1697.725 -301.179)" fill="#fff"/>
        <path id="Path_52" data-name="Path 52" d="M1897.677,300.29a5.014,5.014,0,0,1,2.417.628v1.475a4.726,4.726,0,0,0-2.367-.806,1.714,1.714,0,0,0-.981.243.752.752,0,0,0-.354.649q0,.486.657.9.184.123,1.42.688a4.062,4.062,0,0,1,1.525,1.107,2.334,2.334,0,0,1,.467,1.463,2.23,2.23,0,0,1-.8,1.786,3.066,3.066,0,0,1-2.063.68,4.9,4.9,0,0,1-1.418-.181,6.129,6.129,0,0,1-1.332-.624v-1.635a4.173,4.173,0,0,0,2.595,1.144,1.675,1.675,0,0,0,.983-.264.818.818,0,0,0,.375-.7,1.107,1.107,0,0,0-.652-.971q-.54-.3-1.4-.707a4.116,4.116,0,0,1-1.516-1.076,2.194,2.194,0,0,1-.5-1.427,2.093,2.093,0,0,1,.806-1.725A3.33,3.33,0,0,1,1897.677,300.29Z" transform="translate(-1764.144 -300.29)" fill="#fff"/>
      </g>
      <path id="Path_53" data-name="Path 53" d="M581.45,297.4a1.76,1.76,0,0,0-1.344-.591,1.969,1.969,0,0,0-1.279.411,1.226,1.226,0,0,0-.518.96.937.937,0,0,0,.211.607.762.762,0,0,0,.631.271.8.8,0,0,0,.584-.232.741.741,0,0,0,.239-.547.906.906,0,0,0-.186-.522.466.466,0,0,1-.106-.219.13.13,0,0,1,.072-.128.737.737,0,0,1,.337-.06,1.051,1.051,0,0,1,.8.329,1.194,1.194,0,0,1,.317.856,1.436,1.436,0,0,1-.727,1.329,4.923,4.923,0,0,1-2.453.46,3.911,3.911,0,0,0-2.742.753,2.309,2.309,0,0,0-.769,1.677,1.524,1.524,0,0,0,1.527,1.535,1.222,1.222,0,0,0,.875-.332,1.119,1.119,0,0,0,.344-.833.757.757,0,0,0-.221-.573.726.726,0,0,0-.515-.206.654.654,0,0,0-.525.245.887.887,0,0,0-.2.592c0,.027,0,.07.008.136l.006.078c0,.15-.059.18-.159.18a.529.529,0,0,1-.382-.218.819.819,0,0,1-.2-.576,1.185,1.185,0,0,1,.58-1.007,2.318,2.318,0,0,1,1.366-.422,2.076,2.076,0,0,1,1.5.534,1.677,1.677,0,0,1,.547,1.251,2.289,2.289,0,0,1-1.135,1.885,4.757,4.757,0,0,1-2.781.807,4.148,4.148,0,0,1-2.861-1.025,2.934,2.934,0,0,1-1.143-2.16,1.4,1.4,0,0,1,.372-.975.889.889,0,0,1,1.4-.123,1.063,1.063,0,0,0,.639.32.476.476,0,0,0,.394-.172.547.547,0,0,0,.128-.345c0-.454-.37-.685-1.1-.685a.211.211,0,0,1-.15-.047.867.867,0,0,1-.152-.3,1.687,1.687,0,0,1-.092-.594,1.9,1.9,0,0,1,.65-1.406,2.011,2.011,0,0,1,1.395-.621,1.207,1.207,0,0,1,.767.244.715.715,0,0,1,.3.6,1.34,1.34,0,0,1-.106.516.748.748,0,0,0-.08.267.23.23,0,0,0,.246.252.755.755,0,0,0,.6-.415,1.543,1.543,0,0,0,.255-.854,1.347,1.347,0,0,0-.537-1.069,2,2,0,0,0-1.309-.438,2.654,2.654,0,0,0-1.337.372,3.245,3.245,0,0,0-1.051.971,2.291,2.291,0,0,0-.419,1.324,3.081,3.081,0,0,0,.267,1.193,2.469,2.469,0,0,0-2.175,2.569,3.269,3.269,0,0,0,.388,1.56,3.63,3.63,0,0,0,1.057,1.223,5.33,5.33,0,0,0,1.4.755,5.939,5.939,0,0,0,1.917.259,6.276,6.276,0,0,0,2.471-.436,4.419,4.419,0,0,0,1.735-1.344,3.05,3.05,0,0,0,.725-1.9,2.49,2.49,0,0,0-.933-1.962,5.482,5.482,0,0,0,1.565-.284,2.442,2.442,0,0,0,1.141-.894,2.371,2.371,0,0,0,.453-1.408A2.026,2.026,0,0,0,581.45,297.4Z" transform="translate(-507.068 -264.012)" fill="#fff"/>
    </g>
  </g>
</svg>
