<svg xmlns="http://www.w3.org/2000/svg" xmlns:xlink="http://www.w3.org/1999/xlink" width="251" height="60" viewBox="0 0 251 60">
  <defs>
    <clipPath id="clip-Medcare_Arabic_Logo">
      <rect width="251" height="60"/>
    </clipPath>
  </defs>
  <g id="Medcare_Arabic_Logo" data-name="Medcare Arabic Logo" clip-path="url(#clip-Medcare_Arabic_Logo)">
    <rect width="251" height="60"/>
    <g id="Group_9" data-name="Group 9" transform="translate(-88.096 -46.415)">
      <g id="Group_8" data-name="Group 8" transform="translate(90.096 46.4)">
        <g id="Group_2" data-name="Group 2" transform="translate(188.768)">
          <rect id="Rectangle_2" data-name="Rectangle 2" width="59.856" height="59.857" fill="#850046"/>
          <g id="Group_1" data-name="Group 1" transform="translate(7.279 20.025)">
            <path id="Path_1" data-name="Path 1" d="M627.354,284.421h-4.019v-7.727l-3.621,4.468h-.321l-3.636-4.468v7.727h-3.9V271.107H615.5l4.1,4.981,4.113-4.981h3.642Z" transform="translate(-611.862 -271.093)" fill="#fff"/>
            <path id="Path_2" data-name="Path 2" d="M705.512,277.828a4.392,4.392,0,0,0-.619-2.521,3.027,3.027,0,0,0-1.487-1.215,5.334,5.334,0,0,0-1.769-.3h-1.712v7.854h1.712a4.9,4.9,0,0,0,2.725-.745c.766-.492,1.15-1.521,1.15-3.068m4.109.167a6.311,6.311,0,0,1-.747,3.287,7.086,7.086,0,0,1-1.763,2.005,6.344,6.344,0,0,1-4.015,1.133h-7.189V271.105h5.537a14.833,14.833,0,0,1,2.138.128,9.012,9.012,0,0,1,1.606.373,6.009,6.009,0,0,1,1.209.522,7.591,7.591,0,0,1,.9.635,5.952,5.952,0,0,1,1.2,1.318,6.254,6.254,0,0,1,.821,1.748,7.241,7.241,0,0,1,.306,2.165" transform="translate(-664.329 -271.092)" fill="#fff"/>
            <rect id="Rectangle_3" data-name="Rectangle 3" width="9.881" height="2.684" transform="translate(18.63)" fill="#fff"/>
            <rect id="Rectangle_4" data-name="Rectangle 4" width="9.881" height="2.689" transform="translate(18.63 5.096)" fill="#fff"/>
            <rect id="Rectangle_5" data-name="Rectangle 5" width="9.881" height="2.689" transform="translate(18.63 10.652)" fill="#fff"/>
            <path id="Path_3" data-name="Path 3" d="M622.867,315.7v1.054a9.529,9.529,0,0,0-4.444-1.192,5.216,5.216,0,0,0-3.875,1.591,5.426,5.426,0,0,0-1.559,3.963,5.34,5.34,0,0,0,1.568,3.963,5.482,5.482,0,0,0,4.015,1.553,9.413,9.413,0,0,0,4.436-1.289v1.01a9.346,9.346,0,0,1-4.423,1.188,6.536,6.536,0,0,1-4.744-1.841,6.455,6.455,0,0,1,.037-9.187,6.424,6.424,0,0,1,4.613-1.858,10.514,10.514,0,0,1,4.378,1.046" transform="translate(-611.909 -298.278)" fill="#fff"/>
            <path id="Path_4" data-name="Path 4" d="M653.661,322.4l-2.7-5.885-2.691,5.885Zm-2.4-7.469,5.763,12.6H656.01l-1.985-4.326H647.9l-1.98,4.326h-1.012l5.8-12.6Z" transform="translate(-632.492 -298.452)" fill="#fff"/>
            <path id="Path_5" data-name="Path 5" d="M684.067,315.931v4.918h2.081a3.92,3.92,0,0,0,2.424-.641,2.38,2.38,0,0,0-.012-3.631,3.984,3.984,0,0,0-2.446-.647Zm-.978-.8h3.218a4.751,4.751,0,0,1,3.082.874,2.9,2.9,0,0,1,1.067,2.364,3.132,3.132,0,0,1-2.378,3.057,5.566,5.566,0,0,1,1.674,1.91l2.839,4.326h-1.122l-2.219-3.43a8.465,8.465,0,0,0-1.7-2.153,3.174,3.174,0,0,0-1.787-.424h-1.7v6.007h-.978Z" transform="translate(-656.326 -298.575)" fill="#fff"/>
            <path id="Path_6" data-name="Path 6" d="M720.194,315.13v.8h-5.864v5.027h5.689v.8h-5.689v5.1h6v.8h-6.978V315.13Z" transform="translate(-675.219 -298.575)" fill="#fff"/>
            <path id="Path_7" data-name="Path 7" d="M627.354,284.421h-4.019v-7.727l-3.621,4.468h-.321l-3.636-4.468v7.727h-3.9V271.107H615.5l4.1,4.981,4.113-4.981h3.642Z" transform="translate(-611.862 -271.093)" fill="#fff"/>
            <path id="Path_8" data-name="Path 8" d="M705.512,277.828a4.392,4.392,0,0,0-.619-2.521,3.027,3.027,0,0,0-1.487-1.215,5.334,5.334,0,0,0-1.769-.3h-1.712v7.854h1.712a4.9,4.9,0,0,0,2.725-.745c.766-.492,1.15-1.521,1.15-3.068m4.109.167a6.311,6.311,0,0,1-.747,3.287,7.086,7.086,0,0,1-1.763,2.005,6.344,6.344,0,0,1-4.015,1.133h-7.189V271.105h5.537a14.833,14.833,0,0,1,2.138.128,9.012,9.012,0,0,1,1.606.373,6.009,6.009,0,0,1,1.209.522,7.591,7.591,0,0,1,.9.635,5.952,5.952,0,0,1,1.2,1.318,6.254,6.254,0,0,1,.821,1.748,7.241,7.241,0,0,1,.306,2.165" transform="translate(-664.329 -271.092)" fill="#fff"/>
            <rect id="Rectangle_6" data-name="Rectangle 6" width="9.881" height="2.684" transform="translate(18.63)" fill="#fff"/>
            <rect id="Rectangle_7" data-name="Rectangle 7" width="9.881" height="2.689" transform="translate(18.63 5.096)" fill="#fff"/>
            <rect id="Rectangle_8" data-name="Rectangle 8" width="9.881" height="2.689" transform="translate(18.63 10.652)" fill="#fff"/>
            <path id="Path_9" data-name="Path 9" d="M622.867,315.7v1.054a9.529,9.529,0,0,0-4.444-1.192,5.216,5.216,0,0,0-3.875,1.591,5.426,5.426,0,0,0-1.559,3.963,5.34,5.34,0,0,0,1.568,3.963,5.482,5.482,0,0,0,4.015,1.553,9.413,9.413,0,0,0,4.436-1.289v1.01a9.346,9.346,0,0,1-4.423,1.188,6.536,6.536,0,0,1-4.744-1.841,6.455,6.455,0,0,1,.037-9.187,6.424,6.424,0,0,1,4.613-1.858,10.514,10.514,0,0,1,4.378,1.046" transform="translate(-611.909 -298.278)" fill="#fff"/>
            <path id="Path_10" data-name="Path 10" d="M653.661,322.4l-2.7-5.885-2.691,5.885Zm-2.4-7.469,5.763,12.6H656.01l-1.985-4.326H647.9l-1.98,4.326h-1.012l5.8-12.6Z" transform="translate(-632.492 -298.452)" fill="#fff"/>
            <path id="Path_11" data-name="Path 11" d="M684.067,315.931v4.918h2.081a3.92,3.92,0,0,0,2.424-.641,2.38,2.38,0,0,0-.012-3.631,3.984,3.984,0,0,0-2.446-.647Zm-.978-.8h3.218a4.751,4.751,0,0,1,3.082.874,2.9,2.9,0,0,1,1.067,2.364,3.132,3.132,0,0,1-2.378,3.057,5.566,5.566,0,0,1,1.674,1.91l2.839,4.326h-1.122l-2.219-3.43a8.465,8.465,0,0,0-1.7-2.153,3.174,3.174,0,0,0-1.787-.424h-1.7v6.007h-.978Z" transform="translate(-656.326 -298.575)" fill="#fff"/>
            <path id="Path_12" data-name="Path 12" d="M720.194,315.13v.8h-5.864v5.027h5.689v.8h-5.689v5.1h6v.8h-6.978V315.13Z" transform="translate(-675.219 -298.575)" fill="#fff"/>
          </g>
        </g>
        <g id="Group_6" data-name="Group 6" transform="translate(0 9.163)">
          <g id="Group_4" data-name="Group 4" transform="translate(79.655)">
            <g id="Group_3" data-name="Group 3">
              <path id="Path_13" data-name="Path 13" d="M317.49,256.43v5.415a2.651,2.651,0,0,1-2.855,2.947H307.95q-5.857,0-5.857-5.212V256.43h2.044v3.149a2.845,2.845,0,0,0,1.05,2.523,4.435,4.435,0,0,0,2.523.59h5.047a3.693,3.693,0,0,0,1.934-.35,2.117,2.117,0,0,0,.773-1.916v-4Zm-8.472-.018h-2.008v-2.044h2.008Zm3.5,0H310.51v-2.044h2.008Z" transform="translate(-302.093 -249.781)" fill="#fff"/>
              <path id="Path_14" data-name="Path 14" d="M353.6,262.374H351.19a2.785,2.785,0,0,1-2.284-.958,3.58,3.58,0,0,1-.736-2.394v-8.527h2.044v7.7a2.089,2.089,0,0,0,.59,1.768,2.874,2.874,0,0,0,1.584.313H353.6Z" transform="translate(-330.857 -247.364)" fill="#fff"/>
              <path id="Path_15" data-name="Path 15" d="M362.548,272.252h-2.026v-2.063h2.026Zm6.557-4.034h-8.491v-2.1h1.971a1.281,1.281,0,0,0,1.252-.626,3.231,3.231,0,0,0,.221-1.4v-4.236H366.1v4.126a3.371,3.371,0,0,1-.461,2.136H369.1Zm-3.076,4.034H364v-2.063h2.026Z" transform="translate(-338.568 -253.208)" fill="#fff"/>
              <path id="Path_16" data-name="Path 16" d="M394.478,259.651h-2.045a7.088,7.088,0,0,1-4.107-1.013,6.963,6.963,0,0,1-4.071,1.013H381.99v-2.1h2.155a4.352,4.352,0,0,0,1.713-.2,4.379,4.379,0,0,1-1.363-1.695,4.607,4.607,0,0,1-.423-1.915,3.4,3.4,0,0,1,.221-1.271,4.261,4.261,0,0,1,4.052-2.836,4.093,4.093,0,0,1,4.292,4.034,4.509,4.509,0,0,1-.442,1.952,4.36,4.36,0,0,1-1.344,1.731,4.226,4.226,0,0,0,1.713.2h1.916Zm-5.01-3.739a2.736,2.736,0,0,0,1.215-2.357,2.349,2.349,0,1,0-4.7,0,2.781,2.781,0,0,0,1.216,2.357,7.453,7.453,0,0,0,1.142.682A7.844,7.844,0,0,0,389.468,255.912Zm-.221-7.717h-2.026v-2.063h2.026Z" transform="translate(-351.97 -244.64)" fill="#fff"/>
              <path id="Path_17" data-name="Path 17" d="M413.215,257.172v-2.1h1.879c1.05,0,1.565-.718,1.565-2.173v-4.089h2.082v4.015a4.5,4.5,0,0,1-.332,2.136v.111h1.916c1.05,0,1.566-.682,1.566-2.044v-4.218h2.081v4.015a3.77,3.77,0,0,1-.424,2.247h2.008c1.05,0,1.565-.682,1.565-2.026v-4.236H429.2v3.978a5.266,5.266,0,0,1-.46,2.284h3.149v2.1Zm6.944-10.056v-2.044h2.008v2.044Zm1.75-2.891v-2.063h2.026v2.063Zm1.731,2.891v-2.044h2.008v2.044Z" transform="translate(-371.462 -242.162)" fill="#fff"/>
              <path id="Path_18" data-name="Path 18" d="M463.082,251.9h-2.026v-2.044h2.026Zm6.593,10.075h-8.509v-2.1h1.916a1.251,1.251,0,0,0,1.234-.626,3.23,3.23,0,0,0,.221-1.4v-4.236h2.045v4.126a3.527,3.527,0,0,1-.442,2.136h3.536ZM466.582,251.9h-2.026v-2.044h2.026Z" transform="translate(-401.328 -246.966)" fill="#fff"/>
              <path id="Path_19" data-name="Path 19" d="M482.183,268.219v-2.1h1.879c1.05,0,1.565-.718,1.565-2.173v-4.089h2.082v4.015a4.5,4.5,0,0,1-.332,2.136v.111h1.915c1.05,0,1.566-.682,1.566-2.044v-4.218h2.081v4.015a3.771,3.771,0,0,1-.423,2.247h2.007c1.05,0,1.566-.682,1.566-2.026v-4.236h2.081v3.978a5.267,5.267,0,0,1-.461,2.284h3.15v2.1Z" transform="translate(-414.517 -253.208)" fill="#fff"/>
              <path id="Path_20" data-name="Path 20" d="M541.043,267.99a4.029,4.029,0,0,1-4.126,4.254,3.909,3.909,0,0,1-3.333-1.639h-3.315v-2.1h2.542l-.018-.092a4.509,4.509,0,0,1-.037-.5,4.033,4.033,0,0,1,4.162-4.236A4.1,4.1,0,0,1,541.043,267.99Zm-2.118,0a2.2,2.2,0,0,0-2.063-2.45,2.111,2.111,0,0,0-1.989,2.358,2.213,2.213,0,0,0,2.1,2.431A2.069,2.069,0,0,0,538.925,267.99Z" transform="translate(-444.534 -255.595)" fill="#fff"/>
            </g>
          </g>
          <g id="Group_5" data-name="Group 5" transform="translate(0 19.171)">
            <path id="Path_21" data-name="Path 21" d="M101.828,306.888H99.6a3.444,3.444,0,0,1-3.334-2.726,2.83,2.83,0,0,1-2.358,1.382c-2.357,0-3.812-1.768-3.812-4.328,0-2.762,1.455-4.475,3.812-4.475h4.549v5.839c0,1.436.682,2.21,2.063,2.21h1.308Zm-5.507-5.875v-2.67h-1.86c-1.436,0-2.321,1.142-2.321,2.855,0,1.418.792,2.634,2.026,2.634C95.511,303.83,96.321,302.578,96.321,301.012Zm-1.51-5.765H92.785v-2.063h2.026Zm3.481,0H96.266v-2.063h2.026Z" transform="translate(-90.096 -293.185)" fill="#fff"/>
            <path id="Path_22" data-name="Path 22" d="M121.582,319.8h-2.026v-2.063h2.026Zm6.557-4.034h-8.491v-2.1h1.97a1.28,1.28,0,0,0,1.252-.626,3.23,3.23,0,0,0,.221-1.4V307.4h2.044v4.126a3.371,3.371,0,0,1-.461,2.136h3.463Zm-3.076,4.034h-2.026v-2.063h2.026Z" transform="translate(-108.487 -302.059)" fill="#fff"/>
            <path id="Path_23" data-name="Path 23" d="M149.583,315.762h-8.509v-2.1h1.915a1.251,1.251,0,0,0,1.234-.626,3.231,3.231,0,0,0,.221-1.4V307.4h2.044v4.126a3.525,3.525,0,0,1-.442,2.136h3.536Zm-3.113,4.052h-2.026v-2.063h2.026Z" transform="translate(-121.92 -302.059)" fill="#fff"/>
            <path id="Path_24" data-name="Path 24" d="M180.071,309.917H162.445v-2.1h3.573v-9.78h2.026l-.258,6.667c1.713-2.192,3.481-3.186,5.434-3.186,3.113,0,4.715,2.118,4.77,6.3h2.081Zm-4.218-2.1c.018-.2.018-.387.018-.59,0-2.357-1.068-3.867-2.836-3.867-2.062,0-4.217,1.878-5.415,4.457Z" transform="translate(-135.261 -296.214)" fill="#fff"/>
            <path id="Path_25" data-name="Path 25" d="M213.2,306.583c0,2.229-1.031,3.334-3.094,3.334h-2.173v-2.1h1.749a1.305,1.305,0,0,0,1.308-.608,4.013,4.013,0,0,0,.147-1.326v-7.846H213.2Z" transform="translate(-163.658 -296.214)" fill="#fff"/>
            <path id="Path_26" data-name="Path 26" d="M229.045,309.886H227v-11.9h2.044Z" transform="translate(-175.561 -296.183)" fill="#fff"/>
            <path id="Path_27" data-name="Path 27" d="M255.624,315.762h-3.3c-.313,1.971-1.989,3.057-4.494,3.057v-1.768c1.713,0,2.56-.847,2.56-2.615V307.4h2.062v6.262h3.168Z" transform="translate(-188.565 -302.059)" fill="#fff"/>
            <path id="Path_28" data-name="Path 28" d="M268.388,319.8h-2.026v-2.063h2.026Zm6.557-4.034h-8.49v-2.1h1.97a1.28,1.28,0,0,0,1.252-.626,3.229,3.229,0,0,0,.221-1.4V307.4h2.044v4.126a3.371,3.371,0,0,1-.461,2.136h3.463Zm-3.076,4.034h-2.026v-2.063h2.026Z" transform="translate(-200.132 -302.059)" fill="#fff"/>
            <path id="Path_29" data-name="Path 29" d="M300.153,308.628v1.289H287.831v-2.1h10.112a4.476,4.476,0,0,0-.995-2.929,3.906,3.906,0,0,0-3.186-1.4h-4.254l3.628-5.452h2.449l-2.486,3.518h.9a6.1,6.1,0,0,1,3.536,1.013C299.287,303.728,300.153,305.736,300.153,308.628Z" transform="translate(-213.535 -296.214)" fill="#fff"/>
            <path id="Path_30" data-name="Path 30" d="M337.184,315.762H325.231v-2.1H331.9c0-2.413-.939-3.813-2.8-4.218a8.532,8.532,0,0,0-1.86-.166V307.4c1.013,0,1.657.018,1.915.037a4.5,4.5,0,0,1,1.105.258c2.468.829,3.7,2.818,3.72,5.967h3.2Z" transform="translate(-236.882 -302.059)" fill="#fff"/>
            <path id="Path_31" data-name="Path 31" d="M356.373,319.8h-2.026v-2.063h2.026Zm6.557-4.034h-8.491v-2.1h1.971a1.281,1.281,0,0,0,1.252-.626,3.23,3.23,0,0,0,.221-1.4V307.4h2.044v4.126a3.374,3.374,0,0,1-.46,2.136h3.462Zm-3.076,4.034h-2.026v-2.063h2.026Z" transform="translate(-255.058 -302.059)" fill="#fff"/>
            <path id="Path_32" data-name="Path 32" d="M386.59,315.533a4.029,4.029,0,0,1-4.126,4.254,3.91,3.91,0,0,1-3.334-1.639h-3.316v-2.1h2.542l-.018-.092a4.517,4.517,0,0,1-.037-.5,4.033,4.033,0,0,1,4.162-4.236A4.1,4.1,0,0,1,386.59,315.533Zm-2.118,0a2.2,2.2,0,0,0-2.063-2.45,2.111,2.111,0,0,0-1.989,2.357,2.213,2.213,0,0,0,2.1,2.431A2.069,2.069,0,0,0,384.472,315.533Z" transform="translate(-268.46 -304.445)" fill="#fff"/>
            <path id="Path_33" data-name="Path 33" d="M427.722,309.55h-3.3c-.313,1.971-1.989,3.057-4.494,3.057v-1.768c1.713,0,2.56-.847,2.56-2.615v-7.036h2.063v6.262h3.168Zm-3.186-10.056H422.51v-2.044h2.026Z" transform="translate(-296 -295.847)" fill="#fff"/>
            <path id="Path_34" data-name="Path 34" d="M451.076,308.628v1.289H438.754v-2.1h10.111a4.476,4.476,0,0,0-.995-2.929,3.906,3.906,0,0,0-3.186-1.4H440.43l3.628-5.452h2.449l-2.486,3.518h.9a6.1,6.1,0,0,1,3.536,1.013C450.21,303.728,451.076,305.736,451.076,308.628Z" transform="translate(-307.75 -296.214)" fill="#fff"/>
            <path id="Path_35" data-name="Path 35" d="M478.639,309.886H476.6v-11.9h2.044Z" transform="translate(-331.373 -296.183)" fill="#fff"/>
            <path id="Path_36" data-name="Path 36" d="M493.454,315.762h-3.3c-.313,1.971-1.989,3.057-4.494,3.057v-1.768c1.713,0,2.56-.847,2.56-2.615V307.4h2.063v6.262h3.168Z" transform="translate(-337.034 -302.059)" fill="#fff"/>
            <path id="Path_37" data-name="Path 37" d="M515.26,315.533a4.029,4.029,0,0,1-4.126,4.254,3.909,3.909,0,0,1-3.333-1.639h-3.316v-2.1h2.542l-.018-.092a4.524,4.524,0,0,1-.037-.5,4.033,4.033,0,0,1,4.162-4.236A4.1,4.1,0,0,1,515.26,315.533Zm-2.118,0a2.2,2.2,0,0,0-2.063-2.45,2.111,2.111,0,0,0-1.989,2.357,2.213,2.213,0,0,0,2.1,2.431A2.069,2.069,0,0,0,513.142,315.533Z" transform="translate(-348.784 -304.445)" fill="#fff"/>
            <path id="Path_38" data-name="Path 38" d="M545.755,315.473c0,2.192-1.326,3.3-4,3.3v-1.639c1.289-.037,1.934-.9,1.971-2.339a2.048,2.048,0,0,1-1.952.939,4.2,4.2,0,1,1,3.978-4.144Zm-2.118-3.849c0-1.436-.773-2.394-1.952-2.394-1.087,0-1.805,1.05-1.805,2.3a2.1,2.1,0,0,0,1.9,2.339A2.045,2.045,0,0,0,543.637,311.624Z" transform="translate(-369.592 -302.028)" fill="#fff"/>
          </g>
        </g>
        <g id="Group_7" data-name="Group 7" transform="translate(99.567 50.322)">
          <path id="Path_39" data-name="Path 39" d="M356.857,352.305c-.11.36-.83.44-1.771.69a.67.67,0,0,1,.32-.3Zm.09-.6c-.11.35-.84.44-1.771.69a.608.608,0,0,1,.31-.3Zm-.66,8.052h-.7v-6.471h.7Z" transform="translate(-355.087 -351.705)" fill="#fff"/>
          <path id="Path_40" data-name="Path 40" d="M366.581,365.573H360.57v-.7h3.7a4.1,4.1,0,0,0-.49-2.15,2.183,2.183,0,0,0-1.851-1.04h-.27v-.66q3.166,0,3.331,3.851h1.59Z" transform="translate(-358.51 -357.521)" fill="#fff"/>
          <path id="Path_41" data-name="Path 41" d="M379.459,365.59h-3.451v-.69h.64a.864.864,0,0,0,.85-.41,2.235,2.235,0,0,0,.15-.97v-2.47h.7v2.78a2.484,2.484,0,0,1-.19,1.06h1.3Zm-2.411,1.53h-.71v-.85h.71Zm1.31,0h-.71v-.85h.71Z" transform="translate(-368.147 -357.538)" fill="#fff"/>
          <path id="Path_42" data-name="Path 42" d="M391.483,364.8v1.01h-6.932v-.7h6.081c.01-.13.02-.25.02-.36,0-1.69-.89-2.661-2.46-2.661a2.044,2.044,0,0,0-1.881.99c-.1-.11-.3-.31-.61-.62a2.983,2.983,0,0,1,2.481-1.06A3.141,3.141,0,0,1,391.483,364.8Zm-2.761,2.531H388v-.85h.72Z" transform="translate(-373.48 -357.754)" fill="#fff"/>
          <path id="Path_43" data-name="Path 43" d="M419.082,365.59h-.33a2.057,2.057,0,0,1-2.15-1.18,1.887,1.887,0,0,1-1.85,1.15,2.036,2.036,0,0,1-2.1-2.261,2.323,2.323,0,0,1,.59-1.64h-1.37c-.91,0-1.44.84-1.44,2.2v3.351h-.7V363.82c0-1.861.71-2.771,2.141-2.771H414.8c1.18,0,1.92.83,2.06,2.23a1.713,1.713,0,0,0,1.81,1.61h.41c-.01.14-.01.27-.01.39A2.978,2.978,0,0,0,419.082,365.59Zm-3.09-2.35c0-.96-.43-1.551-1.2-1.551-.82,0-1.28.63-1.28,1.661,0,.94.46,1.56,1.24,1.56C415.581,364.91,415.992,364.35,415.992,363.24Z" transform="translate(-389.199 -357.538)" fill="#fff"/>
          <path id="Path_44" data-name="Path 44" d="M440.3,361.389v1.01h-6.932v-.7h6.082c.01-.12.02-.24.02-.36a2.872,2.872,0,0,0-.55-1.851,2.307,2.307,0,0,0-1.92-.81h-2.061c.36-.65.87-1.56,1.53-2.741h.83l-1.19,2.05H437a3.188,3.188,0,0,1,2.42.94A3.42,3.42,0,0,1,440.3,361.389Z" transform="translate(-403.953 -354.348)" fill="#fff"/>
          <path id="Path_45" data-name="Path 45" d="M457.694,362.382h-.79a1.238,1.238,0,0,1-.91-.38,1.6,1.6,0,0,1-.43-1.21v-4.881h.72v4.461a1.881,1.881,0,0,0,.2.99.765.765,0,0,0,.57.31,6.187,6.187,0,0,0,.64.01Z" transform="translate(-417.811 -354.331)" fill="#fff"/>
          <path id="Path_46" data-name="Path 46" d="M465.669,365.557h-5.5v-.7h1.53a2.953,2.953,0,0,1,.19-3.131,1.984,1.984,0,0,1,1.65-.73,2.349,2.349,0,0,1,1.34.38,1.665,1.665,0,0,1,.77,1.15l-.85.09a1.143,1.143,0,0,0-1.25-1.06,1.174,1.174,0,0,0-1.09.61,2.687,2.687,0,0,0-.27,1.29,1.937,1.937,0,0,0,.46,1.4h3.021Z" transform="translate(-420.685 -357.505)" fill="#fff"/>
          <path id="Path_47" data-name="Path 47" d="M480.554,365.59h-1.721a1.926,1.926,0,0,1-2.031,1.64v-.67c.93,0,1.4-.51,1.4-1.69v-3.821h.7v3.841h1.65Z" transform="translate(-431.07 -357.538)" fill="#fff"/>
          <path id="Path_48" data-name="Path 48" d="M488.539,358.44v2.78c0,1.17-.49,1.76-1.47,1.76h-.87v-.69h.64a.854.854,0,0,0,.85-.42,2.157,2.157,0,0,0,.15-.96v-2.47Zm0-.72h-.71v-.85h.71Z" transform="translate(-436.935 -354.929)" fill="#fff"/>
          <path id="Path_49" data-name="Path 49" d="M507.623,360.727a2.1,2.1,0,0,1-2.091,2.27h-3.491q-2.881,0-2.88-2.91v-1.44h.7v1.44c0,1.49.71,2.21,2.121,2.21h1.95a2.369,2.369,0,0,1-.49-1.56,2.077,2.077,0,0,1,2.111-2.271A2.04,2.04,0,0,1,507.623,360.727Zm-.78-.07c0-1.03-.47-1.61-1.26-1.61-.9,0-1.36.68-1.36,1.73,0,.99.5,1.64,1.32,1.64C506.413,362.417,506.843,361.827,506.843,360.657Zm-.92-2.91h-.71v-.85h.71Z" transform="translate(-445.027 -354.946)" fill="#fff"/>
          <path id="Path_50" data-name="Path 50" d="M529.584,365.573H528.2a1.939,1.939,0,0,1-2.03,1.64v-.67h.09a1.169,1.169,0,0,0,1.22-.97h-1.09a1.717,1.717,0,0,1-1.38-.64,2.439,2.439,0,0,1-.54-1.621,2.4,2.4,0,0,1,.57-1.63,1.851,1.851,0,0,1,1.441-.66c1.11,0,1.8.68,1.8,2v1.861h1.3Zm-2.021-.7v-2.11a1.059,1.059,0,0,0-1.12-1.09,1.093,1.093,0,0,0-.93.53,1.826,1.826,0,0,0-.32,1.04,2.009,2.009,0,0,0,.28,1.07,1.048,1.048,0,0,0,.93.57Z" transform="translate(-460.828 -357.521)" fill="#fff"/>
          <path id="Path_51" data-name="Path 51" d="M545.483,361.049v2.78c0,1.17-.49,1.76-1.48,1.76h-6.622v-.7h.93c.64,0,.99-.43,1.06-1.28v-2.561h.7v2.78a2.724,2.724,0,0,1-.17,1.021v.04h1.31c.64,0,.85-.31.85-1.37v-2.47h.7v2.78a2.484,2.484,0,0,1-.19,1.06h1.2c.75,0,1-.31,1-1.37v-2.47Z" transform="translate(-468.886 -357.538)" fill="#fff"/>
        </g>
      </g>
    </g>
  </g>
</svg>
