<svg xmlns="http://www.w3.org/2000/svg" xmlns:xlink="http://www.w3.org/1999/xlink" width="30" height="30" viewBox="0 0 30 30">
  <defs>
    <clipPath id="clip-Messages">
      <rect width="30" height="30"/>
    </clipPath>
  </defs>
  <g id="Messages" clip-path="url(#clip-Messages)">
    <g id="Group_590" data-name="Group 590" transform="translate(3 2)">
      <g id="Group_588" data-name="Group 588" transform="translate(0 0)">
        <path id="Path_1478" data-name="Path 1478" d="M10.7.067a11.959,11.959,0,1,0,3.773,23.585l4.193,2.316a.859.859,0,0,0,.509.1.9.9,0,0,0,.324-.1.868.868,0,0,0,.449-.7l.318-4.706A11.96,11.96,0,0,0,10.7.067Z" transform="translate(0 0)" fill="none" stroke="#fff" stroke-width="1"/>
      </g>
      <g id="Group_589" data-name="Group 589" transform="translate(4.879 10.66)">
        <circle id="Ellipse_56" data-name="Ellipse 56" cx="1.623" cy="1.623" r="1.623" transform="translate(5.32)" fill="#fff"/>
        <circle id="Ellipse_57" data-name="Ellipse 57" cx="1.623" cy="1.623" r="1.623" fill="#fff"/>
        <circle id="Ellipse_58" data-name="Ellipse 58" cx="1.623" cy="1.623" r="1.623" transform="translate(10.639)" fill="#fff"/>
      </g>
    </g>
  </g>
</svg>
