<?xml version="1.0" encoding="utf-8"?>
<!-- Generator: Adobe Illustrator 24.1.3, SVG Export Plug-In . SVG Version: 6.00 Build 0)  -->
<svg version="1.1" id="Layer_1" xmlns="http://www.w3.org/2000/svg" xmlns:xlink="http://www.w3.org/1999/xlink" x="0px" y="0px"
	 viewBox="0 0 200 200" style="enable-background:new 0 0 200 200;" xml:space="preserve">
<style type="text/css">
	.st0{fill:#FFFFFF;}
</style>
<g>
	<rect y="0" class="st0" width="200" height="200"/>
	<rect x="6.5" y="6.5" width="6.5" height="6.5"/>
	<rect x="12.9" y="6.5" width="6.5" height="6.5"/>
	<rect x="19.4" y="6.5" width="6.5" height="6.5"/>
	<rect x="25.8" y="6.5" width="6.5" height="6.5"/>
	<rect x="32.3" y="6.5" width="6.5" height="6.5"/>
	<rect x="38.7" y="6.5" width="6.5" height="6.5"/>
	<rect x="45.2" y="6.5" width="6.5" height="6.5"/>
	<rect x="58.1" y="6.5" width="6.5" height="6.5"/>
	<rect x="71" y="6.5" width="6.5" height="6.5"/>
	<rect x="77.4" y="6.5" width="6.5" height="6.5"/>
	<rect x="90.3" y="6.5" width="6.5" height="6.5"/>
	<rect x="96.8" y="6.5" width="6.5" height="6.5"/>
	<rect x="116.1" y="6.5" width="6.5" height="6.5"/>
	<rect x="122.6" y="6.5" width="6.5" height="6.5"/>
	<rect x="148.4" y="6.5" width="6.5" height="6.5"/>
	<rect x="154.8" y="6.5" width="6.5" height="6.5"/>
	<rect x="161.3" y="6.5" width="6.5" height="6.5"/>
	<rect x="167.7" y="6.5" width="6.5" height="6.5"/>
	<rect x="174.2" y="6.5" width="6.5" height="6.5"/>
	<rect x="180.6" y="6.5" width="6.5" height="6.5"/>
	<rect x="187.1" y="6.5" width="6.5" height="6.5"/>
	<rect x="6.5" y="12.9" width="6.5" height="6.5"/>
	<rect x="45.2" y="12.9" width="6.5" height="6.5"/>
	<rect x="83.9" y="12.9" width="6.5" height="6.5"/>
	<rect x="116.1" y="12.9" width="6.5" height="6.5"/>
	<rect x="122.6" y="12.9" width="6.5" height="6.5"/>
	<rect x="129" y="12.9" width="6.5" height="6.5"/>
	<rect x="148.4" y="12.9" width="6.5" height="6.5"/>
	<rect x="187.1" y="12.9" width="6.5" height="6.5"/>
	<rect x="6.5" y="19.4" width="6.5" height="6.5"/>
	<rect x="19.4" y="19.4" width="6.5" height="6.5"/>
	<rect x="25.8" y="19.4" width="6.5" height="6.5"/>
	<rect x="32.3" y="19.4" width="6.5" height="6.5"/>
	<rect x="45.2" y="19.4" width="6.5" height="6.5"/>
	<rect x="58.1" y="19.4" width="6.5" height="6.5"/>
	<rect x="96.8" y="19.4" width="6.5" height="6.5"/>
	<rect x="103.2" y="19.4" width="6.5" height="6.5"/>
	<rect x="109.7" y="19.4" width="6.5" height="6.5"/>
	<rect x="116.1" y="19.4" width="6.5" height="6.5"/>
	<rect x="122.6" y="19.4" width="6.5" height="6.5"/>
	<rect x="129" y="19.4" width="6.5" height="6.5"/>
	<rect x="135.5" y="19.4" width="6.5" height="6.5"/>
	<rect x="148.4" y="19.4" width="6.5" height="6.5"/>
	<rect x="161.3" y="19.4" width="6.5" height="6.5"/>
	<rect x="167.7" y="19.4" width="6.5" height="6.5"/>
	<rect x="174.2" y="19.4" width="6.5" height="6.5"/>
	<rect x="187.1" y="19.4" width="6.5" height="6.5"/>
	<rect x="6.5" y="25.8" width="6.5" height="6.5"/>
	<rect x="19.4" y="25.8" width="6.5" height="6.5"/>
	<rect x="25.8" y="25.8" width="6.5" height="6.5"/>
	<rect x="32.3" y="25.8" width="6.5" height="6.5"/>
	<rect x="45.2" y="25.8" width="6.5" height="6.5"/>
	<rect x="58.1" y="25.8" width="6.5" height="6.5"/>
	<rect x="64.5" y="25.8" width="6.5" height="6.5"/>
	<rect x="71" y="25.8" width="6.5" height="6.5"/>
	<rect x="77.4" y="25.8" width="6.5" height="6.5"/>
	<rect x="96.8" y="25.8" width="6.5" height="6.5"/>
	<rect x="109.7" y="25.8" width="6.5" height="6.5"/>
	<rect x="122.6" y="25.8" width="6.5" height="6.5"/>
	<rect x="148.4" y="25.8" width="6.5" height="6.5"/>
	<rect x="161.3" y="25.8" width="6.5" height="6.5"/>
	<rect x="167.7" y="25.8" width="6.5" height="6.5"/>
	<rect x="174.2" y="25.8" width="6.5" height="6.5"/>
	<rect x="187.1" y="25.8" width="6.5" height="6.5"/>
	<rect x="6.5" y="32.3" width="6.5" height="6.5"/>
	<rect x="19.4" y="32.3" width="6.5" height="6.5"/>
	<rect x="25.8" y="32.3" width="6.5" height="6.5"/>
	<rect x="32.3" y="32.3" width="6.5" height="6.5"/>
	<rect x="45.2" y="32.3" width="6.5" height="6.5"/>
	<rect x="71" y="32.3" width="6.5" height="6.5"/>
	<rect x="90.3" y="32.3" width="6.5" height="6.5"/>
	<rect x="96.8" y="32.3" width="6.5" height="6.5"/>
	<rect x="109.7" y="32.3" width="6.5" height="6.5"/>
	<rect x="122.6" y="32.3" width="6.5" height="6.5"/>
	<rect x="148.4" y="32.3" width="6.5" height="6.5"/>
	<rect x="161.3" y="32.3" width="6.5" height="6.5"/>
	<rect x="167.7" y="32.3" width="6.5" height="6.5"/>
	<rect x="174.2" y="32.3" width="6.5" height="6.5"/>
	<rect x="187.1" y="32.3" width="6.5" height="6.5"/>
	<rect x="6.5" y="38.7" width="6.5" height="6.5"/>
	<rect x="45.2" y="38.7" width="6.5" height="6.5"/>
	<rect x="58.1" y="38.7" width="6.5" height="6.5"/>
	<rect x="83.9" y="38.7" width="6.5" height="6.5"/>
	<rect x="90.3" y="38.7" width="6.5" height="6.5"/>
	<rect x="96.8" y="38.7" width="6.5" height="6.5"/>
	<rect x="103.2" y="38.7" width="6.5" height="6.5"/>
	<rect x="109.7" y="38.7" width="6.5" height="6.5"/>
	<rect x="129" y="38.7" width="6.5" height="6.5"/>
	<rect x="148.4" y="38.7" width="6.5" height="6.5"/>
	<rect x="187.1" y="38.7" width="6.5" height="6.5"/>
	<rect x="6.5" y="45.2" width="6.5" height="6.5"/>
	<rect x="12.9" y="45.2" width="6.5" height="6.5"/>
	<rect x="19.4" y="45.2" width="6.5" height="6.5"/>
	<rect x="25.8" y="45.2" width="6.5" height="6.5"/>
	<rect x="32.3" y="45.2" width="6.5" height="6.5"/>
	<rect x="38.7" y="45.2" width="6.5" height="6.5"/>
	<rect x="45.2" y="45.2" width="6.5" height="6.5"/>
	<rect x="58.1" y="45.2" width="6.5" height="6.5"/>
	<rect x="71" y="45.2" width="6.5" height="6.5"/>
	<rect x="83.9" y="45.2" width="6.5" height="6.5"/>
	<rect x="96.8" y="45.2" width="6.5" height="6.5"/>
	<rect x="109.7" y="45.2" width="6.5" height="6.5"/>
	<rect x="122.6" y="45.2" width="6.5" height="6.5"/>
	<rect x="135.5" y="45.2" width="6.5" height="6.5"/>
	<rect x="148.4" y="45.2" width="6.5" height="6.5"/>
	<rect x="154.8" y="45.2" width="6.5" height="6.5"/>
	<rect x="161.3" y="45.2" width="6.5" height="6.5"/>
	<rect x="167.7" y="45.2" width="6.5" height="6.5"/>
	<rect x="174.2" y="45.2" width="6.5" height="6.5"/>
	<rect x="180.6" y="45.2" width="6.5" height="6.5"/>
	<rect x="187.1" y="45.2" width="6.5" height="6.5"/>
	<rect x="58.1" y="51.6" width="6.5" height="6.5"/>
	<rect x="103.2" y="51.6" width="6.5" height="6.5"/>
	<rect x="109.7" y="51.6" width="6.5" height="6.5"/>
	<rect x="116.1" y="51.6" width="6.5" height="6.5"/>
	<rect x="122.6" y="51.6" width="6.5" height="6.5"/>
	<rect x="135.5" y="51.6" width="6.5" height="6.5"/>
	<rect x="12.9" y="58.1" width="6.5" height="6.5"/>
	<rect x="25.8" y="58.1" width="6.5" height="6.5"/>
	<rect x="38.7" y="58.1" width="6.5" height="6.5"/>
	<rect x="45.2" y="58.1" width="6.5" height="6.5"/>
	<rect x="51.6" y="58.1" width="6.5" height="6.5"/>
	<rect x="58.1" y="58.1" width="6.5" height="6.5"/>
	<rect x="64.5" y="58.1" width="6.5" height="6.5"/>
	<rect x="71" y="58.1" width="6.5" height="6.5"/>
	<rect x="77.4" y="58.1" width="6.5" height="6.5"/>
	<rect x="83.9" y="58.1" width="6.5" height="6.5"/>
	<rect x="90.3" y="58.1" width="6.5" height="6.5"/>
	<rect x="96.8" y="58.1" width="6.5" height="6.5"/>
	<rect x="116.1" y="58.1" width="6.5" height="6.5"/>
	<rect x="122.6" y="58.1" width="6.5" height="6.5"/>
	<rect x="135.5" y="58.1" width="6.5" height="6.5"/>
	<rect x="141.9" y="58.1" width="6.5" height="6.5"/>
	<rect x="148.4" y="58.1" width="6.5" height="6.5"/>
	<rect x="154.8" y="58.1" width="6.5" height="6.5"/>
	<rect x="167.7" y="58.1" width="6.5" height="6.5"/>
	<rect x="174.2" y="58.1" width="6.5" height="6.5"/>
	<rect x="187.1" y="58.1" width="6.5" height="6.5"/>
	<rect x="25.8" y="64.5" width="6.5" height="6.5"/>
	<rect x="38.7" y="64.5" width="6.5" height="6.5"/>
	<rect x="64.5" y="64.5" width="6.5" height="6.5"/>
	<rect x="77.4" y="64.5" width="6.5" height="6.5"/>
	<rect x="122.6" y="64.5" width="6.5" height="6.5"/>
	<rect x="129" y="64.5" width="6.5" height="6.5"/>
	<rect x="141.9" y="64.5" width="6.5" height="6.5"/>
	<rect x="148.4" y="64.5" width="6.5" height="6.5"/>
	<rect x="174.2" y="64.5" width="6.5" height="6.5"/>
	<rect x="187.1" y="64.5" width="6.5" height="6.5"/>
	<rect x="6.5" y="71" width="6.5" height="6.5"/>
	<rect x="19.4" y="71" width="6.5" height="6.5"/>
	<rect x="25.8" y="71" width="6.5" height="6.5"/>
	<rect x="32.3" y="71" width="6.5" height="6.5"/>
	<rect x="38.7" y="71" width="6.5" height="6.5"/>
	<rect x="45.2" y="71" width="6.5" height="6.5"/>
	<rect x="58.1" y="71" width="6.5" height="6.5"/>
	<rect x="64.5" y="71" width="6.5" height="6.5"/>
	<rect x="103.2" y="71" width="6.5" height="6.5"/>
	<rect x="109.7" y="71" width="6.5" height="6.5"/>
	<rect x="122.6" y="71" width="6.5" height="6.5"/>
	<rect x="129" y="71" width="6.5" height="6.5"/>
	<rect x="141.9" y="71" width="6.5" height="6.5"/>
	<rect x="148.4" y="71" width="6.5" height="6.5"/>
	<rect x="161.3" y="71" width="6.5" height="6.5"/>
	<rect x="180.6" y="71" width="6.5" height="6.5"/>
	<rect x="19.4" y="77.4" width="6.5" height="6.5"/>
	<rect x="25.8" y="77.4" width="6.5" height="6.5"/>
	<rect x="38.7" y="77.4" width="6.5" height="6.5"/>
	<rect x="51.6" y="77.4" width="6.5" height="6.5"/>
	<rect x="58.1" y="77.4" width="6.5" height="6.5"/>
	<rect x="71" y="77.4" width="6.5" height="6.5"/>
	<rect x="77.4" y="77.4" width="6.5" height="6.5"/>
	<rect x="83.9" y="77.4" width="6.5" height="6.5"/>
	<rect x="90.3" y="77.4" width="6.5" height="6.5"/>
	<rect x="122.6" y="77.4" width="6.5" height="6.5"/>
	<rect x="129" y="77.4" width="6.5" height="6.5"/>
	<rect x="135.5" y="77.4" width="6.5" height="6.5"/>
	<rect x="148.4" y="77.4" width="6.5" height="6.5"/>
	<rect x="161.3" y="77.4" width="6.5" height="6.5"/>
	<rect x="167.7" y="77.4" width="6.5" height="6.5"/>
	<rect x="174.2" y="77.4" width="6.5" height="6.5"/>
	<rect x="180.6" y="77.4" width="6.5" height="6.5"/>
	<rect x="12.9" y="83.9" width="6.5" height="6.5"/>
	<rect x="19.4" y="83.9" width="6.5" height="6.5"/>
	<rect x="32.3" y="83.9" width="6.5" height="6.5"/>
	<rect x="45.2" y="83.9" width="6.5" height="6.5"/>
	<rect x="58.1" y="83.9" width="6.5" height="6.5"/>
	<rect x="64.5" y="83.9" width="6.5" height="6.5"/>
	<rect x="71" y="83.9" width="6.5" height="6.5"/>
	<rect x="90.3" y="83.9" width="6.5" height="6.5"/>
	<rect x="109.7" y="83.9" width="6.5" height="6.5"/>
	<rect x="116.1" y="83.9" width="6.5" height="6.5"/>
	<rect x="135.5" y="83.9" width="6.5" height="6.5"/>
	<rect x="148.4" y="83.9" width="6.5" height="6.5"/>
	<rect x="167.7" y="83.9" width="6.5" height="6.5"/>
	<rect x="12.9" y="90.3" width="6.5" height="6.5"/>
	<rect x="19.4" y="90.3" width="6.5" height="6.5"/>
	<rect x="32.3" y="90.3" width="6.5" height="6.5"/>
	<rect x="38.7" y="90.3" width="6.5" height="6.5"/>
	<rect x="51.6" y="90.3" width="6.5" height="6.5"/>
	<rect x="64.5" y="90.3" width="6.5" height="6.5"/>
	<rect x="71" y="90.3" width="6.5" height="6.5"/>
	<rect x="83.9" y="90.3" width="6.5" height="6.5"/>
	<rect x="90.3" y="90.3" width="6.5" height="6.5"/>
	<rect x="103.2" y="90.3" width="6.5" height="6.5"/>
	<rect x="129" y="90.3" width="6.5" height="6.5"/>
	<rect x="135.5" y="90.3" width="6.5" height="6.5"/>
	<rect x="141.9" y="90.3" width="6.5" height="6.5"/>
	<rect x="154.8" y="90.3" width="6.5" height="6.5"/>
	<rect x="167.7" y="90.3" width="6.5" height="6.5"/>
	<rect x="180.6" y="90.3" width="6.5" height="6.5"/>
	<rect x="6.5" y="96.8" width="6.5" height="6.5"/>
	<rect x="19.4" y="96.8" width="6.5" height="6.5"/>
	<rect x="25.8" y="96.8" width="6.5" height="6.5"/>
	<rect x="45.2" y="96.8" width="6.5" height="6.5"/>
	<rect x="51.6" y="96.8" width="6.5" height="6.5"/>
	<rect x="64.5" y="96.8" width="6.5" height="6.5"/>
	<rect x="77.4" y="96.8" width="6.5" height="6.5"/>
	<rect x="83.9" y="96.8" width="6.5" height="6.5"/>
	<rect x="96.8" y="96.8" width="6.5" height="6.5"/>
	<rect x="141.9" y="96.8" width="6.5" height="6.5"/>
	<rect x="148.4" y="96.8" width="6.5" height="6.5"/>
	<rect x="154.8" y="96.8" width="6.5" height="6.5"/>
	<rect x="187.1" y="96.8" width="6.5" height="6.5"/>
	<rect x="12.9" y="103.2" width="6.5" height="6.5"/>
	<rect x="19.4" y="103.2" width="6.5" height="6.5"/>
	<rect x="25.8" y="103.2" width="6.5" height="6.5"/>
	<rect x="32.3" y="103.2" width="6.5" height="6.5"/>
	<rect x="38.7" y="103.2" width="6.5" height="6.5"/>
	<rect x="64.5" y="103.2" width="6.5" height="6.5"/>
	<rect x="77.4" y="103.2" width="6.5" height="6.5"/>
	<rect x="83.9" y="103.2" width="6.5" height="6.5"/>
	<rect x="135.5" y="103.2" width="6.5" height="6.5"/>
	<rect x="141.9" y="103.2" width="6.5" height="6.5"/>
	<rect x="148.4" y="103.2" width="6.5" height="6.5"/>
	<rect x="154.8" y="103.2" width="6.5" height="6.5"/>
	<rect x="161.3" y="103.2" width="6.5" height="6.5"/>
	<rect x="187.1" y="103.2" width="6.5" height="6.5"/>
	<rect x="6.5" y="109.7" width="6.5" height="6.5"/>
	<rect x="12.9" y="109.7" width="6.5" height="6.5"/>
	<rect x="32.3" y="109.7" width="6.5" height="6.5"/>
	<rect x="38.7" y="109.7" width="6.5" height="6.5"/>
	<rect x="45.2" y="109.7" width="6.5" height="6.5"/>
	<rect x="51.6" y="109.7" width="6.5" height="6.5"/>
	<rect x="64.5" y="109.7" width="6.5" height="6.5"/>
	<rect x="96.8" y="109.7" width="6.5" height="6.5"/>
	<rect x="109.7" y="109.7" width="6.5" height="6.5"/>
	<rect x="135.5" y="109.7" width="6.5" height="6.5"/>
	<rect x="141.9" y="109.7" width="6.5" height="6.5"/>
	<rect x="154.8" y="109.7" width="6.5" height="6.5"/>
	<rect x="180.6" y="109.7" width="6.5" height="6.5"/>
	<rect x="187.1" y="109.7" width="6.5" height="6.5"/>
	<rect x="25.8" y="116.1" width="6.5" height="6.5"/>
	<rect x="38.7" y="116.1" width="6.5" height="6.5"/>
	<rect x="58.1" y="116.1" width="6.5" height="6.5"/>
	<rect x="71" y="116.1" width="6.5" height="6.5"/>
	<rect x="77.4" y="116.1" width="6.5" height="6.5"/>
	<rect x="103.2" y="116.1" width="6.5" height="6.5"/>
	<rect x="116.1" y="116.1" width="6.5" height="6.5"/>
	<rect x="129" y="116.1" width="6.5" height="6.5"/>
	<rect x="141.9" y="116.1" width="6.5" height="6.5"/>
	<rect x="148.4" y="116.1" width="6.5" height="6.5"/>
	<rect x="154.8" y="116.1" width="6.5" height="6.5"/>
	<rect x="167.7" y="116.1" width="6.5" height="6.5"/>
	<rect x="174.2" y="116.1" width="6.5" height="6.5"/>
	<rect x="180.6" y="116.1" width="6.5" height="6.5"/>
	<rect x="187.1" y="116.1" width="6.5" height="6.5"/>
	<rect x="6.5" y="122.6" width="6.5" height="6.5"/>
	<rect x="19.4" y="122.6" width="6.5" height="6.5"/>
	<rect x="25.8" y="122.6" width="6.5" height="6.5"/>
	<rect x="32.3" y="122.6" width="6.5" height="6.5"/>
	<rect x="45.2" y="122.6" width="6.5" height="6.5"/>
	<rect x="58.1" y="122.6" width="6.5" height="6.5"/>
	<rect x="83.9" y="122.6" width="6.5" height="6.5"/>
	<rect x="90.3" y="122.6" width="6.5" height="6.5"/>
	<rect x="116.1" y="122.6" width="6.5" height="6.5"/>
	<rect x="129" y="122.6" width="6.5" height="6.5"/>
	<rect x="135.5" y="122.6" width="6.5" height="6.5"/>
	<rect x="141.9" y="122.6" width="6.5" height="6.5"/>
	<rect x="180.6" y="122.6" width="6.5" height="6.5"/>
	<rect x="187.1" y="122.6" width="6.5" height="6.5"/>
	<rect x="32.3" y="129" width="6.5" height="6.5"/>
	<rect x="58.1" y="129" width="6.5" height="6.5"/>
	<rect x="64.5" y="129" width="6.5" height="6.5"/>
	<rect x="71" y="129" width="6.5" height="6.5"/>
	<rect x="103.2" y="129" width="6.5" height="6.5"/>
	<rect x="109.7" y="129" width="6.5" height="6.5"/>
	<rect x="116.1" y="129" width="6.5" height="6.5"/>
	<rect x="129" y="129" width="6.5" height="6.5"/>
	<rect x="135.5" y="129" width="6.5" height="6.5"/>
	<rect x="161.3" y="129" width="6.5" height="6.5"/>
	<rect x="167.7" y="129" width="6.5" height="6.5"/>
	<rect x="180.6" y="129" width="6.5" height="6.5"/>
	<rect x="187.1" y="129" width="6.5" height="6.5"/>
	<rect x="6.5" y="135.5" width="6.5" height="6.5"/>
	<rect x="32.3" y="135.5" width="6.5" height="6.5"/>
	<rect x="38.7" y="135.5" width="6.5" height="6.5"/>
	<rect x="45.2" y="135.5" width="6.5" height="6.5"/>
	<rect x="51.6" y="135.5" width="6.5" height="6.5"/>
	<rect x="58.1" y="135.5" width="6.5" height="6.5"/>
	<rect x="77.4" y="135.5" width="6.5" height="6.5"/>
	<rect x="129" y="135.5" width="6.5" height="6.5"/>
	<rect x="135.5" y="135.5" width="6.5" height="6.5"/>
	<rect x="141.9" y="135.5" width="6.5" height="6.5"/>
	<rect x="148.4" y="135.5" width="6.5" height="6.5"/>
	<rect x="154.8" y="135.5" width="6.5" height="6.5"/>
	<rect x="161.3" y="135.5" width="6.5" height="6.5"/>
	<rect x="174.2" y="135.5" width="6.5" height="6.5"/>
	<rect x="58.1" y="141.9" width="6.5" height="6.5"/>
	<rect x="64.5" y="141.9" width="6.5" height="6.5"/>
	<rect x="77.4" y="141.9" width="6.5" height="6.5"/>
	<rect x="83.9" y="141.9" width="6.5" height="6.5"/>
	<rect x="96.8" y="141.9" width="6.5" height="6.5"/>
	<rect x="109.7" y="141.9" width="6.5" height="6.5"/>
	<rect x="116.1" y="141.9" width="6.5" height="6.5"/>
	<rect x="129" y="141.9" width="6.5" height="6.5"/>
	<rect x="135.5" y="141.9" width="6.5" height="6.5"/>
	<rect x="161.3" y="141.9" width="6.5" height="6.5"/>
	<rect x="180.6" y="141.9" width="6.5" height="6.5"/>
	<rect x="187.1" y="141.9" width="6.5" height="6.5"/>
	<rect x="6.5" y="148.4" width="6.5" height="6.5"/>
	<rect x="12.9" y="148.4" width="6.5" height="6.5"/>
	<rect x="19.4" y="148.4" width="6.5" height="6.5"/>
	<rect x="25.8" y="148.4" width="6.5" height="6.5"/>
	<rect x="32.3" y="148.4" width="6.5" height="6.5"/>
	<rect x="38.7" y="148.4" width="6.5" height="6.5"/>
	<rect x="45.2" y="148.4" width="6.5" height="6.5"/>
	<rect x="58.1" y="148.4" width="6.5" height="6.5"/>
	<rect x="77.4" y="148.4" width="6.5" height="6.5"/>
	<rect x="83.9" y="148.4" width="6.5" height="6.5"/>
	<rect x="90.3" y="148.4" width="6.5" height="6.5"/>
	<rect x="122.6" y="148.4" width="6.5" height="6.5"/>
	<rect x="135.5" y="148.4" width="6.5" height="6.5"/>
	<rect x="148.4" y="148.4" width="6.5" height="6.5"/>
	<rect x="161.3" y="148.4" width="6.5" height="6.5"/>
	<rect x="167.7" y="148.4" width="6.5" height="6.5"/>
	<rect x="174.2" y="148.4" width="6.5" height="6.5"/>
	<rect x="180.6" y="148.4" width="6.5" height="6.5"/>
	<rect x="6.5" y="154.8" width="6.5" height="6.5"/>
	<rect x="45.2" y="154.8" width="6.5" height="6.5"/>
	<rect x="58.1" y="154.8" width="6.5" height="6.5"/>
	<rect x="64.5" y="154.8" width="6.5" height="6.5"/>
	<rect x="71" y="154.8" width="6.5" height="6.5"/>
	<rect x="109.7" y="154.8" width="6.5" height="6.5"/>
	<rect x="122.6" y="154.8" width="6.5" height="6.5"/>
	<rect x="135.5" y="154.8" width="6.5" height="6.5"/>
	<rect x="161.3" y="154.8" width="6.5" height="6.5"/>
	<rect x="174.2" y="154.8" width="6.5" height="6.5"/>
	<rect x="180.6" y="154.8" width="6.5" height="6.5"/>
	<rect x="6.5" y="161.3" width="6.5" height="6.5"/>
	<rect x="19.4" y="161.3" width="6.5" height="6.5"/>
	<rect x="25.8" y="161.3" width="6.5" height="6.5"/>
	<rect x="32.3" y="161.3" width="6.5" height="6.5"/>
	<rect x="45.2" y="161.3" width="6.5" height="6.5"/>
	<rect x="64.5" y="161.3" width="6.5" height="6.5"/>
	<rect x="71" y="161.3" width="6.5" height="6.5"/>
	<rect x="77.4" y="161.3" width="6.5" height="6.5"/>
	<rect x="83.9" y="161.3" width="6.5" height="6.5"/>
	<rect x="96.8" y="161.3" width="6.5" height="6.5"/>
	<rect x="103.2" y="161.3" width="6.5" height="6.5"/>
	<rect x="109.7" y="161.3" width="6.5" height="6.5"/>
	<rect x="122.6" y="161.3" width="6.5" height="6.5"/>
	<rect x="135.5" y="161.3" width="6.5" height="6.5"/>
	<rect x="141.9" y="161.3" width="6.5" height="6.5"/>
	<rect x="148.4" y="161.3" width="6.5" height="6.5"/>
	<rect x="154.8" y="161.3" width="6.5" height="6.5"/>
	<rect x="161.3" y="161.3" width="6.5" height="6.5"/>
	<rect x="167.7" y="161.3" width="6.5" height="6.5"/>
	<rect x="180.6" y="161.3" width="6.5" height="6.5"/>
	<rect x="187.1" y="161.3" width="6.5" height="6.5"/>
	<rect x="6.5" y="167.7" width="6.5" height="6.5"/>
	<rect x="19.4" y="167.7" width="6.5" height="6.5"/>
	<rect x="25.8" y="167.7" width="6.5" height="6.5"/>
	<rect x="32.3" y="167.7" width="6.5" height="6.5"/>
	<rect x="45.2" y="167.7" width="6.5" height="6.5"/>
	<rect x="58.1" y="167.7" width="6.5" height="6.5"/>
	<rect x="71" y="167.7" width="6.5" height="6.5"/>
	<rect x="77.4" y="167.7" width="6.5" height="6.5"/>
	<rect x="90.3" y="167.7" width="6.5" height="6.5"/>
	<rect x="103.2" y="167.7" width="6.5" height="6.5"/>
	<rect x="122.6" y="167.7" width="6.5" height="6.5"/>
	<rect x="129" y="167.7" width="6.5" height="6.5"/>
	<rect x="135.5" y="167.7" width="6.5" height="6.5"/>
	<rect x="148.4" y="167.7" width="6.5" height="6.5"/>
	<rect x="161.3" y="167.7" width="6.5" height="6.5"/>
	<rect x="167.7" y="167.7" width="6.5" height="6.5"/>
	<rect x="187.1" y="167.7" width="6.5" height="6.5"/>
	<rect x="6.5" y="174.2" width="6.5" height="6.5"/>
	<rect x="19.4" y="174.2" width="6.5" height="6.5"/>
	<rect x="25.8" y="174.2" width="6.5" height="6.5"/>
	<rect x="32.3" y="174.2" width="6.5" height="6.5"/>
	<rect x="45.2" y="174.2" width="6.5" height="6.5"/>
	<rect x="64.5" y="174.2" width="6.5" height="6.5"/>
	<rect x="71" y="174.2" width="6.5" height="6.5"/>
	<rect x="77.4" y="174.2" width="6.5" height="6.5"/>
	<rect x="83.9" y="174.2" width="6.5" height="6.5"/>
	<rect x="103.2" y="174.2" width="6.5" height="6.5"/>
	<rect x="109.7" y="174.2" width="6.5" height="6.5"/>
	<rect x="122.6" y="174.2" width="6.5" height="6.5"/>
	<rect x="129" y="174.2" width="6.5" height="6.5"/>
	<rect x="135.5" y="174.2" width="6.5" height="6.5"/>
	<rect x="154.8" y="174.2" width="6.5" height="6.5"/>
	<rect x="161.3" y="174.2" width="6.5" height="6.5"/>
	<rect x="167.7" y="174.2" width="6.5" height="6.5"/>
	<rect x="187.1" y="174.2" width="6.5" height="6.5"/>
	<rect x="6.5" y="180.6" width="6.5" height="6.5"/>
	<rect x="45.2" y="180.6" width="6.5" height="6.5"/>
	<rect x="58.1" y="180.6" width="6.5" height="6.5"/>
	<rect x="64.5" y="180.6" width="6.5" height="6.5"/>
	<rect x="71" y="180.6" width="6.5" height="6.5"/>
	<rect x="77.4" y="180.6" width="6.5" height="6.5"/>
	<rect x="90.3" y="180.6" width="6.5" height="6.5"/>
	<rect x="109.7" y="180.6" width="6.5" height="6.5"/>
	<rect x="116.1" y="180.6" width="6.5" height="6.5"/>
	<rect x="122.6" y="180.6" width="6.5" height="6.5"/>
	<rect x="129" y="180.6" width="6.5" height="6.5"/>
	<rect x="141.9" y="180.6" width="6.5" height="6.5"/>
	<rect x="148.4" y="180.6" width="6.5" height="6.5"/>
	<rect x="154.8" y="180.6" width="6.5" height="6.5"/>
	<rect x="180.6" y="180.6" width="6.5" height="6.5"/>
	<rect x="6.5" y="187.1" width="6.5" height="6.5"/>
	<rect x="12.9" y="187.1" width="6.5" height="6.5"/>
	<rect x="19.4" y="187.1" width="6.5" height="6.5"/>
	<rect x="25.8" y="187.1" width="6.5" height="6.5"/>
	<rect x="32.3" y="187.1" width="6.5" height="6.5"/>
	<rect x="38.7" y="187.1" width="6.5" height="6.5"/>
	<rect x="45.2" y="187.1" width="6.5" height="6.5"/>
	<rect x="77.4" y="187.1" width="6.5" height="6.5"/>
	<rect x="103.2" y="187.1" width="6.5" height="6.5"/>
	<rect x="116.1" y="187.1" width="6.5" height="6.5"/>
	<rect x="122.6" y="187.1" width="6.5" height="6.5"/>
	<rect x="129" y="187.1" width="6.5" height="6.5"/>
	<rect x="135.5" y="187.1" width="6.5" height="6.5"/>
	<rect x="148.4" y="187.1" width="6.5" height="6.5"/>
	<rect x="161.3" y="187.1" width="6.5" height="6.5"/>
	<rect x="167.7" y="187.1" width="6.5" height="6.5"/>
	<rect x="180.6" y="187.1" width="6.5" height="6.5"/>
</g>
</svg>
