<svg xmlns="http://www.w3.org/2000/svg" width="26.5" height="26.5" viewBox="0 0 26.5 26.5"><defs><style>.a{fill:none;stroke:#97005e;stroke-miterlimit:10;stroke-width:1.5px;}.b{fill:#fff;}</style></defs><g transform="translate(-1187.25 -51.641)"><path class="a" d="M46.633,34.133a12.5,12.5,0,1,0,12.5,12.5A12.5,12.5,0,0,0,46.633,34.133Z" transform="translate(1153.867 18.258)"/><g transform="translate(1188.316 52.768)"><path class="b" d="M206.763,80.727a1.963,1.963,0,1,0-1.963-1.963A1.963,1.963,0,0,0,206.763,80.727Z" transform="translate(-194.58 -71.627)"/><path class="b" d="M119.721,187.721h-.005l-3.436.309q-.176.016-.352.016H114.4q-.176,0-.351-.016l-3.442-.309a.982.982,0,0,0-.154,1.957l2.777.252a.327.327,0,0,1,.3.326v.753a1.306,1.306,0,0,1-.09.478l-1.574,4.01a.982.982,0,1,0,1.8.795l1.5-3.669,1.515,3.679a.982.982,0,0,0,1.8-.791l-1.58-4.025a1.309,1.309,0,0,1-.09-.477v-.753a.327.327,0,0,1,.3-.326l2.772-.252a.982.982,0,0,0-.149-1.958Z" transform="translate(-102.981 -178.291)"/></g></g></svg>