<svg xmlns="http://www.w3.org/2000/svg" width="26.5" height="26.5" viewBox="0 0 26.5 26.5"><defs><style>.a{fill:none;stroke:#97005e;stroke-miterlimit:10;stroke-width:1.5px;}.b{fill:#fff;}</style></defs><g transform="translate(-1118.469 -51.641)"><g transform="translate(1119.219 52.391)"><path class="a" d="M46.633,34.133a12.5,12.5,0,1,0,12.5,12.5A12.5,12.5,0,0,0,46.633,34.133Z" transform="translate(-34.133 -34.133)"/></g><g transform="translate(1125.933 58.811)"><g transform="translate(0 0)"><path class="b" d="M11.43,10.751,8.139,7.461a4.589,4.589,0,1,0-.682.682l3.291,3.291a.482.482,0,1,0,.682-.682ZM4.58,8.2A3.616,3.616,0,1,1,8.2,4.583,3.62,3.62,0,0,1,4.58,8.2Z" transform="translate(0 -0.003)"/></g></g></g></svg>