<svg xmlns="http://www.w3.org/2000/svg" version="1.1" xmlns:xlink="http://www.w3.org/1999/xlink" xmlns:svgjs="http://svgjs.com/svgjs" width="1051" height="1051" viewBox="0 0 1051 1051" fill="#ffffff"><path d="M296 80H323V107H296V80Z " fill="#000000" opacity="1"></path><path d="M350 80H377V107H350V80Z " fill="#000000" opacity="1"></path><path d="M404 80H431V107H404V80Z " fill="#000000" opacity="1"></path><path d="M512 80H539V107H512V80Z " fill="#000000" opacity="1"></path><path d="M620 80H647V107H620V80Z " fill="#000000" opacity="1"></path><path d="M647 80H674V107H647V80Z " fill="#000000" opacity="1"></path><path d="M701 80H728V107H701V80Z " fill="#000000" opacity="1"></path><path d="M728 80H755V107H728V80Z " fill="#000000" opacity="1"></path><path d="M296 107H323V134H296V107Z " fill="#000000" opacity="1"></path><path d="M323 107H350V134H323V107Z " fill="#000000" opacity="1"></path><path d="M404 107H431V134H404V107Z " fill="#000000" opacity="1"></path><path d="M458 107H485V134H458V107Z " fill="#000000" opacity="1"></path><path d="M485 107H512V134H485V107Z " fill="#000000" opacity="1"></path><path d="M512 107H539V134H512V107Z " fill="#000000" opacity="1"></path><path d="M539 107H566V134H539V107Z " fill="#000000" opacity="1"></path><path d="M566 107H593V134H566V107Z " fill="#000000" opacity="1"></path><path d="M593 107H620V134H593V107Z " fill="#000000" opacity="1"></path><path d="M728 107H755V134H728V107Z " fill="#000000" opacity="1"></path><path d="M296 134H323V161H296V134Z " fill="#000000" opacity="1"></path><path d="M323 134H350V161H323V134Z " fill="#000000" opacity="1"></path><path d="M377 134H404V161H377V134Z " fill="#000000" opacity="1"></path><path d="M404 134H431V161H404V134Z " fill="#000000" opacity="1"></path><path d="M431 134H458V161H431V134Z " fill="#000000" opacity="1"></path><path d="M458 134H485V161H458V134Z " fill="#000000" opacity="1"></path><path d="M485 134H512V161H485V134Z " fill="#000000" opacity="1"></path><path d="M566 134H593V161H566V134Z " fill="#000000" opacity="1"></path><path d="M620 134H647V161H620V134Z " fill="#000000" opacity="1"></path><path d="M647 134H674V161H647V134Z " fill="#000000" opacity="1"></path><path d="M674 134H701V161H674V134Z " fill="#000000" opacity="1"></path><path d="M701 134H728V161H701V134Z " fill="#000000" opacity="1"></path><path d="M728 134H755V161H728V134Z " fill="#000000" opacity="1"></path><path d="M350 161H377V188H350V161Z " fill="#000000" opacity="1"></path><path d="M404 161H431V188H404V161Z " fill="#000000" opacity="1"></path><path d="M431 161H458V188H431V161Z " fill="#000000" opacity="1"></path><path d="M458 161H485V188H458V161Z " fill="#000000" opacity="1"></path><path d="M485 161H512V188H485V161Z " fill="#000000" opacity="1"></path><path d="M512 161H539V188H512V161Z " fill="#000000" opacity="1"></path><path d="M539 161H566V188H539V161Z " fill="#000000" opacity="1"></path><path d="M566 161H593V188H566V161Z " fill="#000000" opacity="1"></path><path d="M701 161H728V188H701V161Z " fill="#000000" opacity="1"></path><path d="M323 188H350V215H323V188Z " fill="#000000" opacity="1"></path><path d="M350 188H377V215H350V188Z " fill="#000000" opacity="1"></path><path d="M431 188H458V215H431V188Z " fill="#000000" opacity="1"></path><path d="M458 188H485V215H458V188Z " fill="#000000" opacity="1"></path><path d="M512 188H539V215H512V188Z " fill="#000000" opacity="1"></path><path d="M566 188H593V215H566V188Z " fill="#000000" opacity="1"></path><path d="M593 188H620V215H593V188Z " fill="#000000" opacity="1"></path><path d="M728 188H755V215H728V188Z " fill="#000000" opacity="1"></path><path d="M404 215H431V242H404V215Z " fill="#000000" opacity="1"></path><path d="M512 215H539V242H512V215Z " fill="#000000" opacity="1"></path><path d="M593 215H620V242H593V215Z " fill="#000000" opacity="1"></path><path d="M647 215H674V242H647V215Z " fill="#000000" opacity="1"></path><path d="M323 269H350V296H323V269Z " fill="#000000" opacity="1"></path><path d="M350 269H377V296H350V269Z " fill="#000000" opacity="1"></path><path d="M377 269H404V296H377V269Z " fill="#000000" opacity="1"></path><path d="M485 269H512V296H485V269Z " fill="#000000" opacity="1"></path><path d="M539 269H566V296H539V269Z " fill="#000000" opacity="1"></path><path d="M566 269H593V296H566V269Z " fill="#000000" opacity="1"></path><path d="M593 269H620V296H593V269Z " fill="#000000" opacity="1"></path><path d="M647 269H674V296H647V269Z " fill="#000000" opacity="1"></path><path d="M728 269H755V296H728V269Z " fill="#000000" opacity="1"></path><path d="M134 296H161V323H134V296Z " fill="#000000" opacity="1"></path><path d="M161 296H188V323H161V296Z " fill="#000000" opacity="1"></path><path d="M323 296H350V323H323V296Z " fill="#000000" opacity="1"></path><path d="M350 296H377V323H350V296Z " fill="#000000" opacity="1"></path><path d="M377 296H404V323H377V296Z " fill="#000000" opacity="1"></path><path d="M431 296H458V323H431V296Z " fill="#000000" opacity="1"></path><path d="M512 296H539V323H512V296Z " fill="#000000" opacity="1"></path><path d="M539 296H566V323H539V296Z " fill="#000000" opacity="1"></path><path d="M620 296H647V323H620V296Z " fill="#000000" opacity="1"></path><path d="M674 296H701V323H674V296Z " fill="#000000" opacity="1"></path><path d="M728 296H755V323H728V296Z " fill="#000000" opacity="1"></path><path d="M755 296H782V323H755V296Z " fill="#000000" opacity="1"></path><path d="M782 296H809V323H782V296Z " fill="#000000" opacity="1"></path><path d="M809 296H836V323H809V296Z " fill="#000000" opacity="1"></path><path d="M890 296H917V323H890V296Z " fill="#000000" opacity="1"></path><path d="M917 296H944V323H917V296Z " fill="#000000" opacity="1"></path><path d="M944 296H971V323H944V296Z " fill="#000000" opacity="1"></path><path d="M134 323H161V350H134V323Z " fill="#000000" opacity="1"></path><path d="M161 323H188V350H161V323Z " fill="#000000" opacity="1"></path><path d="M188 323H215V350H188V323Z " fill="#000000" opacity="1"></path><path d="M215 323H242V350H215V323Z " fill="#000000" opacity="1"></path><path d="M350 323H377V350H350V323Z " fill="#000000" opacity="1"></path><path d="M377 323H404V350H377V323Z " fill="#000000" opacity="1"></path><path d="M431 323H458V350H431V323Z " fill="#000000" opacity="1"></path><path d="M512 323H539V350H512V323Z " fill="#000000" opacity="1"></path><path d="M539 323H566V350H539V323Z " fill="#000000" opacity="1"></path><path d="M566 323H593V350H566V323Z " fill="#000000" opacity="1"></path><path d="M593 323H620V350H593V323Z " fill="#000000" opacity="1"></path><path d="M620 323H647V350H620V323Z " fill="#000000" opacity="1"></path><path d="M701 323H728V350H701V323Z " fill="#000000" opacity="1"></path><path d="M755 323H782V350H755V323Z " fill="#000000" opacity="1"></path><path d="M782 323H809V350H782V323Z " fill="#000000" opacity="1"></path><path d="M890 323H917V350H890V323Z " fill="#000000" opacity="1"></path><path d="M917 323H944V350H917V323Z " fill="#000000" opacity="1"></path><path d="M944 323H971V350H944V323Z " fill="#000000" opacity="1"></path><path d="M107 350H134V377H107V350Z " fill="#000000" opacity="1"></path><path d="M161 350H188V377H161V350Z " fill="#000000" opacity="1"></path><path d="M215 350H242V377H215V350Z " fill="#000000" opacity="1"></path><path d="M269 350H296V377H269V350Z " fill="#000000" opacity="1"></path><path d="M296 350H323V377H296V350Z " fill="#000000" opacity="1"></path><path d="M458 350H485V377H458V350Z " fill="#000000" opacity="1"></path><path d="M485 350H512V377H485V350Z " fill="#000000" opacity="1"></path><path d="M539 350H566V377H539V350Z " fill="#000000" opacity="1"></path><path d="M566 350H593V377H566V350Z " fill="#000000" opacity="1"></path><path d="M593 350H620V377H593V350Z " fill="#000000" opacity="1"></path><path d="M674 350H701V377H674V350Z " fill="#000000" opacity="1"></path><path d="M755 350H782V377H755V350Z " fill="#000000" opacity="1"></path><path d="M782 350H809V377H782V350Z " fill="#000000" opacity="1"></path><path d="M809 350H836V377H809V350Z " fill="#000000" opacity="1"></path><path d="M917 350H944V377H917V350Z " fill="#000000" opacity="1"></path><path d="M161 377H188V404H161V377Z " fill="#000000" opacity="1"></path><path d="M188 377H215V404H188V377Z " fill="#000000" opacity="1"></path><path d="M269 377H296V404H269V377Z " fill="#000000" opacity="1"></path><path d="M377 377H404V404H377V377Z " fill="#000000" opacity="1"></path><path d="M404 377H431V404H404V377Z " fill="#000000" opacity="1"></path><path d="M431 377H458V404H431V377Z " fill="#000000" opacity="1"></path><path d="M458 377H485V404H458V377Z " fill="#000000" opacity="1"></path><path d="M512 377H539V404H512V377Z " fill="#000000" opacity="1"></path><path d="M593 377H620V404H593V377Z " fill="#000000" opacity="1"></path><path d="M755 377H782V404H755V377Z " fill="#000000" opacity="1"></path><path d="M782 377H809V404H782V377Z " fill="#000000" opacity="1"></path><path d="M863 377H890V404H863V377Z " fill="#000000" opacity="1"></path><path d="M890 377H917V404H890V377Z " fill="#000000" opacity="1"></path><path d="M917 377H944V404H917V377Z " fill="#000000" opacity="1"></path><path d="M107 404H134V431H107V404Z " fill="#000000" opacity="1"></path><path d="M161 404H188V431H161V404Z " fill="#000000" opacity="1"></path><path d="M269 404H296V431H269V404Z " fill="#000000" opacity="1"></path><path d="M296 404H323V431H296V404Z " fill="#000000" opacity="1"></path><path d="M323 404H350V431H323V404Z " fill="#000000" opacity="1"></path><path d="M350 404H377V431H350V404Z " fill="#000000" opacity="1"></path><path d="M377 404H404V431H377V404Z " fill="#000000" opacity="1"></path><path d="M431 404H458V431H431V404Z " fill="#000000" opacity="1"></path><path d="M485 404H512V431H485V404Z " fill="#000000" opacity="1"></path><path d="M539 404H566V431H539V404Z " fill="#000000" opacity="1"></path><path d="M566 404H593V431H566V404Z " fill="#000000" opacity="1"></path><path d="M593 404H620V431H593V404Z " fill="#000000" opacity="1"></path><path d="M620 404H647V431H620V404Z " fill="#000000" opacity="1"></path><path d="M647 404H674V431H647V404Z " fill="#000000" opacity="1"></path><path d="M674 404H701V431H674V404Z " fill="#000000" opacity="1"></path><path d="M755 404H782V431H755V404Z " fill="#000000" opacity="1"></path><path d="M809 404H836V431H809V404Z " fill="#000000" opacity="1"></path><path d="M107 431H134V458H107V431Z " fill="#000000" opacity="1"></path><path d="M134 431H161V458H134V431Z " fill="#000000" opacity="1"></path><path d="M188 431H215V458H188V431Z " fill="#000000" opacity="1"></path><path d="M215 431H242V458H215V431Z " fill="#000000" opacity="1"></path><path d="M269 431H296V458H269V431Z " fill="#000000" opacity="1"></path><path d="M323 431H350V458H323V431Z " fill="#000000" opacity="1"></path><path d="M377 431H404V458H377V431Z " fill="#000000" opacity="1"></path><path d="M404 431H431V458H404V431Z " fill="#000000" opacity="1"></path><path d="M458 431H485V458H458V431Z " fill="#000000" opacity="1"></path><path d="M539 431H566V458H539V431Z " fill="#000000" opacity="1"></path><path d="M593 431H620V458H593V431Z " fill="#000000" opacity="1"></path><path d="M701 431H728V458H701V431Z " fill="#000000" opacity="1"></path><path d="M782 431H809V458H782V431Z " fill="#000000" opacity="1"></path><path d="M836 431H863V458H836V431Z " fill="#000000" opacity="1"></path><path d="M863 431H890V458H863V431Z " fill="#000000" opacity="1"></path><path d="M944 431H971V458H944V431Z " fill="#000000" opacity="1"></path><path d="M80 458H107V485H80V458Z " fill="#000000" opacity="1"></path><path d="M107 458H134V485H107V458Z " fill="#000000" opacity="1"></path><path d="M161 458H188V485H161V458Z " fill="#000000" opacity="1"></path><path d="M188 458H215V485H188V458Z " fill="#000000" opacity="1"></path><path d="M215 458H242V485H215V458Z " fill="#000000" opacity="1"></path><path d="M323 458H350V485H323V458Z " fill="#000000" opacity="1"></path><path d="M377 458H404V485H377V458Z " fill="#000000" opacity="1"></path><path d="M431 458H458V485H431V458Z " fill="#000000" opacity="1"></path><path d="M458 458H485V485H458V458Z " fill="#000000" opacity="1"></path><path d="M674 458H701V485H674V458Z " fill="#000000" opacity="1"></path><path d="M809 458H836V485H809V458Z " fill="#000000" opacity="1"></path><path d="M836 458H863V485H836V458Z " fill="#000000" opacity="1"></path><path d="M917 458H944V485H917V458Z " fill="#000000" opacity="1"></path><path d="M107 485H134V512H107V485Z " fill="#000000" opacity="1"></path><path d="M134 485H161V512H134V485Z " fill="#000000" opacity="1"></path><path d="M161 485H188V512H161V485Z " fill="#000000" opacity="1"></path><path d="M188 485H215V512H188V485Z " fill="#000000" opacity="1"></path><path d="M269 485H296V512H269V485Z " fill="#000000" opacity="1"></path><path d="M323 485H350V512H323V485Z " fill="#000000" opacity="1"></path><path d="M350 485H377V512H350V485Z " fill="#000000" opacity="1"></path><path d="M377 485H404V512H377V485Z " fill="#000000" opacity="1"></path><path d="M431 485H458V512H431V485Z " fill="#000000" opacity="1"></path><path d="M458 485H485V512H458V485Z " fill="#000000" opacity="1"></path><path d="M512 485H539V512H512V485Z " fill="#000000" opacity="1"></path><path d="M566 485H593V512H566V485Z " fill="#000000" opacity="1"></path><path d="M593 485H620V512H593V485Z " fill="#000000" opacity="1"></path><path d="M620 485H647V512H620V485Z " fill="#000000" opacity="1"></path><path d="M647 485H674V512H647V485Z " fill="#000000" opacity="1"></path><path d="M674 485H701V512H674V485Z " fill="#000000" opacity="1"></path><path d="M755 485H782V512H755V485Z " fill="#000000" opacity="1"></path><path d="M836 485H863V512H836V485Z " fill="#000000" opacity="1"></path><path d="M863 485H890V512H863V485Z " fill="#000000" opacity="1"></path><path d="M944 485H971V512H944V485Z " fill="#000000" opacity="1"></path><path d="M107 512H134V539H107V512Z " fill="#000000" opacity="1"></path><path d="M134 512H161V539H134V512Z " fill="#000000" opacity="1"></path><path d="M161 512H188V539H161V512Z " fill="#000000" opacity="1"></path><path d="M215 512H242V539H215V512Z " fill="#000000" opacity="1"></path><path d="M269 512H296V539H269V512Z " fill="#000000" opacity="1"></path><path d="M323 512H350V539H323V512Z " fill="#000000" opacity="1"></path><path d="M377 512H404V539H377V512Z " fill="#000000" opacity="1"></path><path d="M404 512H431V539H404V512Z " fill="#000000" opacity="1"></path><path d="M431 512H458V539H431V512Z " fill="#000000" opacity="1"></path><path d="M458 512H485V539H458V512Z " fill="#000000" opacity="1"></path><path d="M512 512H539V539H512V512Z " fill="#000000" opacity="1"></path><path d="M539 512H566V539H539V512Z " fill="#000000" opacity="1"></path><path d="M566 512H593V539H566V512Z " fill="#000000" opacity="1"></path><path d="M593 512H620V539H593V512Z " fill="#000000" opacity="1"></path><path d="M755 512H782V539H755V512Z " fill="#000000" opacity="1"></path><path d="M809 512H836V539H809V512Z " fill="#000000" opacity="1"></path><path d="M890 512H917V539H890V512Z " fill="#000000" opacity="1"></path><path d="M944 512H971V539H944V512Z " fill="#000000" opacity="1"></path><path d="M80 539H107V566H80V539Z " fill="#000000" opacity="1"></path><path d="M107 539H134V566H107V539Z " fill="#000000" opacity="1"></path><path d="M161 539H188V566H161V539Z " fill="#000000" opacity="1"></path><path d="M269 539H296V566H269V539Z " fill="#000000" opacity="1"></path><path d="M323 539H350V566H323V539Z " fill="#000000" opacity="1"></path><path d="M350 539H377V566H350V539Z " fill="#000000" opacity="1"></path><path d="M404 539H431V566H404V539Z " fill="#000000" opacity="1"></path><path d="M431 539H458V566H431V539Z " fill="#000000" opacity="1"></path><path d="M512 539H539V566H512V539Z " fill="#000000" opacity="1"></path><path d="M539 539H566V566H539V539Z " fill="#000000" opacity="1"></path><path d="M593 539H620V566H593V539Z " fill="#000000" opacity="1"></path><path d="M620 539H647V566H620V539Z " fill="#000000" opacity="1"></path><path d="M701 539H728V566H701V539Z " fill="#000000" opacity="1"></path><path d="M728 539H755V566H728V539Z " fill="#000000" opacity="1"></path><path d="M782 539H809V566H782V539Z " fill="#000000" opacity="1"></path><path d="M107 566H134V593H107V566Z " fill="#000000" opacity="1"></path><path d="M188 566H215V593H188V566Z " fill="#000000" opacity="1"></path><path d="M215 566H242V593H215V566Z " fill="#000000" opacity="1"></path><path d="M323 566H350V593H323V566Z " fill="#000000" opacity="1"></path><path d="M377 566H404V593H377V566Z " fill="#000000" opacity="1"></path><path d="M458 566H485V593H458V566Z " fill="#000000" opacity="1"></path><path d="M593 566H620V593H593V566Z " fill="#000000" opacity="1"></path><path d="M674 566H701V593H674V566Z " fill="#000000" opacity="1"></path><path d="M836 566H863V593H836V566Z " fill="#000000" opacity="1"></path><path d="M890 566H917V593H890V566Z " fill="#000000" opacity="1"></path><path d="M80 593H107V620H80V593Z " fill="#000000" opacity="1"></path><path d="M161 593H188V620H161V593Z " fill="#000000" opacity="1"></path><path d="M188 593H215V620H188V593Z " fill="#000000" opacity="1"></path><path d="M269 593H296V620H269V593Z " fill="#000000" opacity="1"></path><path d="M350 593H377V620H350V593Z " fill="#000000" opacity="1"></path><path d="M404 593H431V620H404V593Z " fill="#000000" opacity="1"></path><path d="M485 593H512V620H485V593Z " fill="#000000" opacity="1"></path><path d="M512 593H539V620H512V593Z " fill="#000000" opacity="1"></path><path d="M539 593H566V620H539V593Z " fill="#000000" opacity="1"></path><path d="M620 593H647V620H620V593Z " fill="#000000" opacity="1"></path><path d="M647 593H674V620H647V593Z " fill="#000000" opacity="1"></path><path d="M701 593H728V620H701V593Z " fill="#000000" opacity="1"></path><path d="M728 593H755V620H728V593Z " fill="#000000" opacity="1"></path><path d="M755 593H782V620H755V593Z " fill="#000000" opacity="1"></path><path d="M836 593H863V620H836V593Z " fill="#000000" opacity="1"></path><path d="M863 593H890V620H863V593Z " fill="#000000" opacity="1"></path><path d="M890 593H917V620H890V593Z " fill="#000000" opacity="1"></path><path d="M917 593H944V620H917V593Z " fill="#000000" opacity="1"></path><path d="M944 593H971V620H944V593Z " fill="#000000" opacity="1"></path><path d="M107 620H134V647H107V620Z " fill="#000000" opacity="1"></path><path d="M134 620H161V647H134V620Z " fill="#000000" opacity="1"></path><path d="M161 620H188V647H161V620Z " fill="#000000" opacity="1"></path><path d="M323 620H350V647H323V620Z " fill="#000000" opacity="1"></path><path d="M350 620H377V647H350V620Z " fill="#000000" opacity="1"></path><path d="M377 620H404V647H377V620Z " fill="#000000" opacity="1"></path><path d="M431 620H458V647H431V620Z " fill="#000000" opacity="1"></path><path d="M674 620H701V647H674V620Z " fill="#000000" opacity="1"></path><path d="M728 620H755V647H728V620Z " fill="#000000" opacity="1"></path><path d="M809 620H836V647H809V620Z " fill="#000000" opacity="1"></path><path d="M836 620H863V647H836V620Z " fill="#000000" opacity="1"></path><path d="M863 620H890V647H863V620Z " fill="#000000" opacity="1"></path><path d="M80 647H107V674H80V647Z " fill="#000000" opacity="1"></path><path d="M269 647H296V674H269V647Z " fill="#000000" opacity="1"></path><path d="M323 647H350V674H323V647Z " fill="#000000" opacity="1"></path><path d="M350 647H377V674H350V647Z " fill="#000000" opacity="1"></path><path d="M431 647H458V674H431V647Z " fill="#000000" opacity="1"></path><path d="M512 647H539V674H512V647Z " fill="#000000" opacity="1"></path><path d="M566 647H593V674H566V647Z " fill="#000000" opacity="1"></path><path d="M593 647H620V674H593V647Z " fill="#000000" opacity="1"></path><path d="M620 647H647V674H620V647Z " fill="#000000" opacity="1"></path><path d="M647 647H674V674H647V647Z " fill="#000000" opacity="1"></path><path d="M674 647H701V674H674V647Z " fill="#000000" opacity="1"></path><path d="M755 647H782V674H755V647Z " fill="#000000" opacity="1"></path><path d="M890 647H917V674H890V647Z " fill="#000000" opacity="1"></path><path d="M917 647H944V674H917V647Z " fill="#000000" opacity="1"></path><path d="M944 647H971V674H944V647Z " fill="#000000" opacity="1"></path><path d="M80 674H107V701H80V674Z " fill="#000000" opacity="1"></path><path d="M134 674H161V701H134V674Z " fill="#000000" opacity="1"></path><path d="M161 674H188V701H161V674Z " fill="#000000" opacity="1"></path><path d="M188 674H215V701H188V674Z " fill="#000000" opacity="1"></path><path d="M296 674H323V701H296V674Z " fill="#000000" opacity="1"></path><path d="M323 674H350V701H323V674Z " fill="#000000" opacity="1"></path><path d="M350 674H377V701H350V674Z " fill="#000000" opacity="1"></path><path d="M377 674H404V701H377V674Z " fill="#000000" opacity="1"></path><path d="M404 674H431V701H404V674Z " fill="#000000" opacity="1"></path><path d="M458 674H485V701H458V674Z " fill="#000000" opacity="1"></path><path d="M485 674H512V701H485V674Z " fill="#000000" opacity="1"></path><path d="M512 674H539V701H512V674Z " fill="#000000" opacity="1"></path><path d="M539 674H566V701H539V674Z " fill="#000000" opacity="1"></path><path d="M701 674H728V701H701V674Z " fill="#000000" opacity="1"></path><path d="M728 674H755V701H728V674Z " fill="#000000" opacity="1"></path><path d="M836 674H863V701H836V674Z " fill="#000000" opacity="1"></path><path d="M917 674H944V701H917V674Z " fill="#000000" opacity="1"></path><path d="M80 701H107V728H80V701Z " fill="#000000" opacity="1"></path><path d="M134 701H161V728H134V701Z " fill="#000000" opacity="1"></path><path d="M188 701H215V728H188V701Z " fill="#000000" opacity="1"></path><path d="M431 701H458V728H431V701Z " fill="#000000" opacity="1"></path><path d="M458 701H485V728H458V701Z " fill="#000000" opacity="1"></path><path d="M512 701H539V728H512V701Z " fill="#000000" opacity="1"></path><path d="M539 701H566V728H539V701Z " fill="#000000" opacity="1"></path><path d="M647 701H674V728H647V701Z " fill="#000000" opacity="1"></path><path d="M701 701H728V728H701V701Z " fill="#000000" opacity="1"></path><path d="M809 701H836V728H809V701Z " fill="#000000" opacity="1"></path><path d="M863 701H890V728H863V701Z " fill="#000000" opacity="1"></path><path d="M890 701H917V728H890V701Z " fill="#000000" opacity="1"></path><path d="M80 728H107V755H80V728Z " fill="#000000" opacity="1"></path><path d="M134 728H161V755H134V728Z " fill="#000000" opacity="1"></path><path d="M188 728H215V755H188V728Z " fill="#000000" opacity="1"></path><path d="M215 728H242V755H215V728Z " fill="#000000" opacity="1"></path><path d="M296 728H323V755H296V728Z " fill="#000000" opacity="1"></path><path d="M404 728H431V755H404V728Z " fill="#000000" opacity="1"></path><path d="M458 728H485V755H458V728Z " fill="#000000" opacity="1"></path><path d="M485 728H512V755H485V728Z " fill="#000000" opacity="1"></path><path d="M512 728H539V755H512V728Z " fill="#000000" opacity="1"></path><path d="M539 728H566V755H539V728Z " fill="#000000" opacity="1"></path><path d="M593 728H620V755H593V728Z " fill="#000000" opacity="1"></path><path d="M647 728H674V755H647V728Z " fill="#000000" opacity="1"></path><path d="M674 728H701V755H674V728Z " fill="#000000" opacity="1"></path><path d="M701 728H728V755H701V728Z " fill="#000000" opacity="1"></path><path d="M296 755H323V782H296V755Z " fill="#000000" opacity="1"></path><path d="M350 755H377V782H350V755Z " fill="#000000" opacity="1"></path><path d="M377 755H404V782H377V755Z " fill="#000000" opacity="1"></path><path d="M404 755H431V782H404V755Z " fill="#000000" opacity="1"></path><path d="M431 755H458V782H431V755Z " fill="#000000" opacity="1"></path><path d="M593 755H620V782H593V755Z " fill="#000000" opacity="1"></path><path d="M620 755H647V782H620V755Z " fill="#000000" opacity="1"></path><path d="M647 755H674V782H647V755Z " fill="#000000" opacity="1"></path><path d="M701 755H728V782H701V755Z " fill="#000000" opacity="1"></path><path d="M863 755H890V782H863V755Z " fill="#000000" opacity="1"></path><path d="M917 755H944V782H917V755Z " fill="#000000" opacity="1"></path><path d="M944 755H971V782H944V755Z " fill="#000000" opacity="1"></path><path d="M404 782H431V809H404V782Z " fill="#000000" opacity="1"></path><path d="M431 782H458V809H431V782Z " fill="#000000" opacity="1"></path><path d="M512 782H539V809H512V782Z " fill="#000000" opacity="1"></path><path d="M566 782H593V809H566V782Z " fill="#000000" opacity="1"></path><path d="M647 782H674V809H647V782Z " fill="#000000" opacity="1"></path><path d="M863 782H890V809H863V782Z " fill="#000000" opacity="1"></path><path d="M917 782H944V809H917V782Z " fill="#000000" opacity="1"></path><path d="M350 809H377V836H350V809Z " fill="#000000" opacity="1"></path><path d="M404 809H431V836H404V809Z " fill="#000000" opacity="1"></path><path d="M458 809H485V836H458V809Z " fill="#000000" opacity="1"></path><path d="M485 809H512V836H485V809Z " fill="#000000" opacity="1"></path><path d="M539 809H566V836H539V809Z " fill="#000000" opacity="1"></path><path d="M647 809H674V836H647V809Z " fill="#000000" opacity="1"></path><path d="M674 809H701V836H674V809Z " fill="#000000" opacity="1"></path><path d="M701 809H728V836H701V809Z " fill="#000000" opacity="1"></path><path d="M890 809H917V836H890V809Z " fill="#000000" opacity="1"></path><path d="M917 809H944V836H917V809Z " fill="#000000" opacity="1"></path><path d="M944 809H971V836H944V809Z " fill="#000000" opacity="1"></path><path d="M296 836H323V863H296V836Z " fill="#000000" opacity="1"></path><path d="M323 836H350V863H323V836Z " fill="#000000" opacity="1"></path><path d="M377 836H404V863H377V836Z " fill="#000000" opacity="1"></path><path d="M431 836H458V863H431V836Z " fill="#000000" opacity="1"></path><path d="M512 836H539V863H512V836Z " fill="#000000" opacity="1"></path><path d="M566 836H593V863H566V836Z " fill="#000000" opacity="1"></path><path d="M620 836H647V863H620V836Z " fill="#000000" opacity="1"></path><path d="M647 836H674V863H647V836Z " fill="#000000" opacity="1"></path><path d="M917 836H944V863H917V836Z " fill="#000000" opacity="1"></path><path d="M944 836H971V863H944V836Z " fill="#000000" opacity="1"></path><path d="M296 863H323V890H296V863Z " fill="#000000" opacity="1"></path><path d="M323 863H350V890H323V863Z " fill="#000000" opacity="1"></path><path d="M350 863H377V890H350V863Z " fill="#000000" opacity="1"></path><path d="M404 863H431V890H404V863Z " fill="#000000" opacity="1"></path><path d="M539 863H566V890H539V863Z " fill="#000000" opacity="1"></path><path d="M566 863H593V890H566V863Z " fill="#000000" opacity="1"></path><path d="M593 863H620V890H593V863Z " fill="#000000" opacity="1"></path><path d="M674 863H701V890H674V863Z " fill="#000000" opacity="1"></path><path d="M701 863H728V890H701V863Z " fill="#000000" opacity="1"></path><path d="M755 863H782V890H755V863Z " fill="#000000" opacity="1"></path><path d="M836 863H863V890H836V863Z " fill="#000000" opacity="1"></path><path d="M890 863H917V890H890V863Z " fill="#000000" opacity="1"></path><path d="M917 863H944V890H917V863Z " fill="#000000" opacity="1"></path><path d="M296 890H323V917H296V890Z " fill="#000000" opacity="1"></path><path d="M377 890H404V917H377V890Z " fill="#000000" opacity="1"></path><path d="M485 890H512V917H485V890Z " fill="#000000" opacity="1"></path><path d="M566 890H593V917H566V890Z " fill="#000000" opacity="1"></path><path d="M593 890H620V917H593V890Z " fill="#000000" opacity="1"></path><path d="M674 890H701V917H674V890Z " fill="#000000" opacity="1"></path><path d="M728 890H755V917H728V890Z " fill="#000000" opacity="1"></path><path d="M755 890H782V917H755V890Z " fill="#000000" opacity="1"></path><path d="M782 890H809V917H782V890Z " fill="#000000" opacity="1"></path><path d="M863 890H890V917H863V890Z " fill="#000000" opacity="1"></path><path d="M890 890H917V917H890V890Z " fill="#000000" opacity="1"></path><path d="M323 917H350V944H323V917Z " fill="#000000" opacity="1"></path><path d="M350 917H377V944H350V917Z " fill="#000000" opacity="1"></path><path d="M377 917H404V944H377V917Z " fill="#000000" opacity="1"></path><path d="M431 917H458V944H431V917Z " fill="#000000" opacity="1"></path><path d="M458 917H485V944H458V917Z " fill="#000000" opacity="1"></path><path d="M539 917H566V944H539V917Z " fill="#000000" opacity="1"></path><path d="M620 917H647V944H620V917Z " fill="#000000" opacity="1"></path><path d="M755 917H782V944H755V917Z " fill="#000000" opacity="1"></path><path d="M809 917H836V944H809V917Z " fill="#000000" opacity="1"></path><path d="M890 917H917V944H890V917Z " fill="#000000" opacity="1"></path><path d="M323 944H350V971H323V944Z " fill="#000000" opacity="1"></path><path d="M350 944H377V971H350V944Z " fill="#000000" opacity="1"></path><path d="M377 944H404V971H377V944Z " fill="#000000" opacity="1"></path><path d="M404 944H431V971H404V944Z " fill="#000000" opacity="1"></path><path d="M431 944H458V971H431V944Z " fill="#000000" opacity="1"></path><path d="M485 944H512V971H485V944Z " fill="#000000" opacity="1"></path><path d="M593 944H620V971H593V944Z " fill="#000000" opacity="1"></path><path d="M647 944H674V971H647V944Z " fill="#000000" opacity="1"></path><path d="M674 944H701V971H674V944Z " fill="#000000" opacity="1"></path><path d="M701 944H728V971H701V944Z " fill="#000000" opacity="1"></path><path d="M728 944H755V971H728V944Z " fill="#000000" opacity="1"></path><path d="M863 944H890V971H863V944Z " fill="#000000" opacity="1"></path><path d="M890 944H917V971H890V944Z " fill="#000000" opacity="1"></path><path d="M917 944H944V971H917V944Z " fill="#000000" opacity="1"></path><path d="M93.5 93.5H255.5V255.5H93.5V93.5Z " fill="none" stroke-width="27" stroke="#000000"></path><path d="M795.5 93.5H957.5V255.5H795.5V93.5Z " fill="none" stroke-width="27" stroke="#000000"></path><path d="M93.5 795.5H255.5V957.5H93.5V795.5Z " fill="none" stroke-width="27" stroke="#000000"></path><path d="M134 134H215V215H134V134Z " fill="#000000" opacity="1"></path><path d="M836 134H917V215H836V134Z " fill="#000000" opacity="1"></path><path d="M134 836H215V917H134V836Z " fill="#000000" opacity="1"></path><path d="M296 242H323V269H296V242Z " fill="#000000" opacity="1"></path><path d="M242 296H269V323H242V296Z " fill="#000000" opacity="1"></path><path d="M350 242H377V269H350V242Z " fill="#000000" opacity="1"></path><path d="M242 350H269V377H242V350Z " fill="#000000" opacity="1"></path><path d="M404 242H431V269H404V242Z " fill="#000000" opacity="1"></path><path d="M242 404H269V431H242V404Z " fill="#000000" opacity="1"></path><path d="M458 242H485V269H458V242Z " fill="#000000" opacity="1"></path><path d="M242 458H269V485H242V458Z " fill="#000000" opacity="1"></path><path d="M512 242H539V269H512V242Z " fill="#000000" opacity="1"></path><path d="M242 512H269V539H242V512Z " fill="#000000" opacity="1"></path><path d="M566 242H593V269H566V242Z " fill="#000000" opacity="1"></path><path d="M242 566H269V593H242V566Z " fill="#000000" opacity="1"></path><path d="M620 242H647V269H620V242Z " fill="#000000" opacity="1"></path><path d="M242 620H269V647H242V620Z " fill="#000000" opacity="1"></path><path d="M674 242H701V269H674V242Z " fill="#000000" opacity="1"></path><path d="M242 674H269V701H242V674Z " fill="#000000" opacity="1"></path><path d="M728 242H755V269H728V242Z " fill="#000000" opacity="1"></path><path d="M242 728H269V755H242V728Z " fill="#000000" opacity="1"></path><path d="M728 728H755V755H728V728Z " fill="#000000" opacity="1"></path><path d="M728 755H755V782H728V755Z " fill="#000000" opacity="1"></path><path d="M728 782H755V809H728V782Z " fill="#000000" opacity="1"></path><path d="M728 809H755V836H728V809Z " fill="#000000" opacity="1"></path><path d="M836 755H863V782H836V755Z " fill="#000000" opacity="1"></path><path d="M836 782H863V809H836V782Z " fill="#000000" opacity="1"></path><path d="M836 809H863V836H836V809Z " fill="#000000" opacity="1"></path><path d="M836 836H863V863H836V836Z " fill="#000000" opacity="1"></path><path d="M755 728H782V755H755V728Z " fill="#000000" opacity="1"></path><path d="M782 728H809V755H782V728Z " fill="#000000" opacity="1"></path><path d="M809 728H836V755H809V728Z " fill="#000000" opacity="1"></path><path d="M836 728H863V755H836V728Z " fill="#000000" opacity="1"></path><path d="M728 836H755V863H728V836Z " fill="#000000" opacity="1"></path><path d="M755 836H782V863H755V836Z " fill="#000000" opacity="1"></path><path d="M782 836H809V863H782V836Z " fill="#000000" opacity="1"></path><path d="M809 836H836V863H809V836Z " fill="#000000" opacity="1"></path><path d="M782 782H809V809H782V782Z " fill="#000000" opacity="1"></path></svg>