<svg xmlns="http://www.w3.org/2000/svg" width="39.041" height="39.041" viewBox="0 0 39.041 39.041"><defs><style>.a{stroke:#fff;}.b{fill:#fff;}</style></defs><g transform="translate(0.5 0.5)"><path class="a" d="M19.02,0A19.02,19.02,0,1,1,0,19.02,19.02,19.02,0,0,1,19.02,0Z"/><path class="b" d="M16.866,1.622a6.941,6.941,0,0,1-1.987.545A3.47,3.47,0,0,0,16.4.254a6.915,6.915,0,0,1-2.2.839A3.462,3.462,0,0,0,8.216,3.459a3.5,3.5,0,0,0,.09.789A9.823,9.823,0,0,1,1.175.633,3.463,3.463,0,0,0,2.245,5.252,3.432,3.432,0,0,1,.679,4.819v.044A3.461,3.461,0,0,0,3.454,8.255a3.455,3.455,0,0,1-.912.121,3.4,3.4,0,0,1-.651-.063,3.466,3.466,0,0,0,3.233,2.4,6.952,6.952,0,0,1-4.3,1.48A6.974,6.974,0,0,1,0,12.149,9.792,9.792,0,0,0,5.3,13.7,9.777,9.777,0,0,0,15.15,3.861c0-.151,0-.3-.01-.447a7.033,7.033,0,0,0,1.727-1.79Z" transform="translate(11.217 12.68)"/></g></svg>