<svg xmlns="http://www.w3.org/2000/svg" width="25" height="25" viewBox="0 0 25 25"><defs><style>.a,.d{fill:none;}.a{stroke:#97005e;stroke-width:1.5px;}.b{fill:#fff;}.c{stroke:none;}</style></defs><g transform="translate(-1231 -52)"><g transform="translate(1230.655 52.391)"><g class="a" transform="translate(0.345 -0.391)"><circle class="c" cx="12.5" cy="12.5" r="12.5"/><circle class="d" cx="12.5" cy="12.5" r="11.75"/></g></g><g transform="translate(1239.103 58.295)"><path class="b" d="M87.811,26.29a2.478,2.478,0,1,0-2.478-2.478A2.481,2.481,0,0,0,87.811,26.29Z" transform="translate(-83.35 -21.333)"/><path class="b" d="M6.692,277.333H2.231A2.233,2.233,0,0,0,0,279.564v1.983a.248.248,0,0,0,.248.248H8.675a.248.248,0,0,0,.248-.248v-1.983A2.233,2.233,0,0,0,6.692,277.333Z" transform="translate(0 -271.385)"/><path class="b" d="M324.442,130.362l0-.007a.246.246,0,0,0-.067-.273l-1.972-1.972a.248.248,0,0,0-.35.35l1.559,1.559h-3.366a.248.248,0,1,0,0,.5h3.367l-1.56,1.56a.248.248,0,0,0,.35.351l1.983-1.983a.247.247,0,0,0,.05-.073Z" transform="translate(-312.564 -125.558)"/></g></g></svg>