<svg xmlns="http://www.w3.org/2000/svg" width="24.667" height="24.784" viewBox="0 0 24.667 24.784">
  <path id="whatsapp-svgrepo-com" d="M24.073,6.6A12.285,12.285,0,0,0,4.742,21.421L3,27.784l6.511-1.709a12.287,12.287,0,0,0,5.869,1.5h.005A12.286,12.286,0,0,0,24.073,6.6M15.385,25.5h0a10.188,10.188,0,0,1-5.2-1.425l-.371-.221L5.95,24.866,6.98,21.1l-.242-.386A10.207,10.207,0,1,1,15.385,25.5m5.6-7.646c-.308-.155-1.815-.9-2.1-1s-.484-.153-.69.153-.793,1-.973,1.2-.358.23-.665.077a8.383,8.383,0,0,1-2.468-1.523,9.244,9.244,0,0,1-1.707-2.126c-.179-.308-.019-.473.135-.627.138-.137.306-.358.46-.538a2.1,2.1,0,0,0,.306-.512.561.561,0,0,0-.026-.538c-.077-.155-.691-1.665-.947-2.279-.248-.6-.5-.516-.69-.524s-.391-.012-.587-.011a1.13,1.13,0,0,0-.819.383,3.44,3.44,0,0,0-1.074,2.56A5.977,5.977,0,0,0,10.4,15.727a13.682,13.682,0,0,0,5.243,4.634,18.149,18.149,0,0,0,1.75.647,4.216,4.216,0,0,0,1.933.122,3.157,3.157,0,0,0,2.071-1.458,2.568,2.568,0,0,0,.179-1.46c-.077-.129-.283-.207-.588-.36" transform="translate(-3 -3)" fill="#8a1c5c" fill-rule="evenodd"/>
</svg>
