<svg xmlns="http://www.w3.org/2000/svg" width="28.54" height="24.035" viewBox="0 0 28.54 24.035">
  <g id="XMLID_104_" transform="translate(0 -28.405)">
    <path id="XMLID_105_" d="M9.167,49.417q.708.621,1.46,1.285l.01.009L12.3,52.15a1.19,1.19,0,0,0,1.555,0l1.488-1.286A8.322,8.322,0,0,0,25.94,38.075a8.782,8.782,0,0,0,.221-1.943A7.645,7.645,0,0,0,18.434,28.4a8.3,8.3,0,0,0-5.353,2,8.3,8.3,0,0,0-5.354-2A7.645,7.645,0,0,0,0,36.132C0,41.37,3.647,44.571,9.167,49.417Zm11.047-11.25a5.947,5.947,0,1,1-5.947,5.947A5.954,5.954,0,0,1,20.214,38.167Z" fill="#8a1c5c"/>
    <path id="XMLID_108_" d="M208.861,195.12a1.189,1.189,0,0,0,1.682,0l3.568-3.568a1.189,1.189,0,0,0-1.682-1.682L209.7,192.6l-.745-.745a1.189,1.189,0,1,0-1.682,1.682Z" transform="translate(-190.519 -148.341)" fill="#8a1c5c"/>
  </g>
</svg>
