<svg xmlns="http://www.w3.org/2000/svg" width="39.041" height="39.041" viewBox="0 0 39.041 39.041"><defs><style>.a{stroke:#fff;}.b{fill:#fff;}</style></defs><g transform="translate(0.5 0.5)"><circle class="a" cx="19.02" cy="19.02" r="19.02"/><path class="b" d="M8.779,13.656h0c-.046,0-4.587-.033-5.963-.186-.074-.017-.164-.03-.268-.045a2.462,2.462,0,0,1-1.669-.792,4.669,4.669,0,0,1-.7-1.924A31.086,31.086,0,0,1,0,7.573V6.114c0-1.562.18-3.15.182-3.166a4.246,4.246,0,0,1,.7-1.924,2.392,2.392,0,0,1,1.7-.8h0l.049,0C5.057.033,8.742,0,8.779,0S12.5.033,14.924.217l.083.007a2.235,2.235,0,0,1,1.673.8,4.669,4.669,0,0,1,.7,1.924c0,.016.182,1.6.182,3.166V7.573c0,1.531-.18,3.119-.182,3.134a4.671,4.671,0,0,1-.7,1.924,2.392,2.392,0,0,1-1.7.8h0l-.049,0C12.5,13.653,8.816,13.656,8.779,13.656ZM6.659,3.693v6.735l5.752-3.29Z" transform="translate(10.242 12.192)"/></g></svg>